<?xml version="1.0" standalone="no"?>
<!DOCTYPE svg PUBLIC "-//W3C//DTD SVG 20010904//EN"
 "http://www.w3.org/TR/2001/REC-SVG-20010904/DTD/svg10.dtd">
<svg version="1.0" xmlns="http://www.w3.org/2000/svg"
 width="870.000000pt" height="579.000000pt" viewBox="0 0 870.000000 579.000000"
 preserveAspectRatio="xMidYMid meet">

<g transform="translate(0.000000,579.000000) scale(0.100000,-0.100000)"
fill="#000000" stroke="none">
<path d="M0 2895 l0 -2895 4350 0 4350 0 0 2895 0 2895 -4350 0 -4350 0 0
-2895z m150 2815 c0 -5 -22 -10 -50 -10 -27 0 -50 5 -50 10 0 6 23 10 50 10
28 0 50 -4 50 -10z m120 0 c0 -5 -22 -10 -50 -10 -27 0 -50 5 -50 10 0 6 23
10 50 10 28 0 50 -4 50 -10z m120 0 c0 -5 -22 -10 -50 -10 -27 0 -50 5 -50 10
0 6 23 10 50 10 28 0 50 -4 50 -10z m120 0 c0 -5 -22 -10 -50 -10 -27 0 -50 5
-50 10 0 6 23 10 50 10 28 0 50 -4 50 -10z m120 0 c0 -5 -22 -10 -50 -10 -27
0 -50 5 -50 10 0 6 23 10 50 10 28 0 50 -4 50 -10z m120 0 c0 -5 -22 -10 -50
-10 -27 0 -50 5 -50 10 0 6 23 10 50 10 28 0 50 -4 50 -10z m120 0 c0 -5 -22
-10 -50 -10 -27 0 -50 5 -50 10 0 6 23 10 50 10 28 0 50 -4 50 -10z m120 0 c0
-5 -22 -10 -50 -10 -27 0 -50 5 -50 10 0 6 23 10 50 10 28 0 50 -4 50 -10z
m120 0 c0 -5 -22 -10 -50 -10 -27 0 -50 5 -50 10 0 6 23 10 50 10 28 0 50 -4
50 -10z m120 0 c0 -5 -22 -10 -50 -10 -27 0 -50 5 -50 10 0 6 23 10 50 10 28
0 50 -4 50 -10z m120 0 c0 -5 -22 -10 -50 -10 -27 0 -50 5 -50 10 0 6 23 10
50 10 28 0 50 -4 50 -10z m120 0 c0 -5 -22 -10 -50 -10 -27 0 -50 5 -50 10 0
6 23 10 50 10 28 0 50 -4 50 -10z m120 0 c0 -5 -22 -10 -50 -10 -27 0 -50 5
-50 10 0 6 23 10 50 10 28 0 50 -4 50 -10z m120 0 c0 -5 -22 -10 -50 -10 -27
0 -50 5 -50 10 0 6 23 10 50 10 28 0 50 -4 50 -10z m120 0 c0 -5 -22 -10 -50
-10 -27 0 -50 5 -50 10 0 6 23 10 50 10 28 0 50 -4 50 -10z m120 0 c0 -5 -22
-10 -50 -10 -27 0 -50 5 -50 10 0 6 23 10 50 10 28 0 50 -4 50 -10z m120 0 c0
-5 -22 -10 -50 -10 -27 0 -50 5 -50 10 0 6 23 10 50 10 28 0 50 -4 50 -10z
m120 0 c0 -5 -22 -10 -50 -10 -27 0 -50 5 -50 10 0 6 23 10 50 10 28 0 50 -4
50 -10z m120 0 c0 -5 -22 -10 -50 -10 -27 0 -50 5 -50 10 0 6 23 10 50 10 28
0 50 -4 50 -10z m120 0 c0 -5 -22 -10 -50 -10 -27 0 -50 5 -50 10 0 6 23 10
50 10 28 0 50 -4 50 -10z m120 0 c0 -5 -22 -10 -50 -10 -27 0 -50 5 -50 10 0
6 23 10 50 10 28 0 50 -4 50 -10z m120 0 c0 -5 -22 -10 -50 -10 -27 0 -50 5
-50 10 0 6 23 10 50 10 28 0 50 -4 50 -10z m120 0 c0 -5 -22 -10 -50 -10 -27
0 -50 5 -50 10 0 6 23 10 50 10 28 0 50 -4 50 -10z m120 0 c0 -5 -22 -10 -50
-10 -27 0 -50 5 -50 10 0 6 23 10 50 10 28 0 50 -4 50 -10z m120 0 c0 -5 -22
-10 -50 -10 -27 0 -50 5 -50 10 0 6 23 10 50 10 28 0 50 -4 50 -10z m-2290
-223 l0 -74 -32 -1 c-41 -1 -58 13 -58 48 0 33 22 54 50 47 17 -4 20 0 20 24
0 16 5 29 10 29 6 0 10 -31 10 -73z m1180 52 c0 -5 -7 -9 -15 -9 -15 0 -20 12
-9 23 8 8 24 -1 24 -14z m500 -52 l0 -74 -32 -1 c-41 -1 -58 13 -58 48 0 33
22 54 50 47 17 -4 20 0 20 24 0 16 5 29 10 29 6 0 10 -31 10 -73z m720 0 l0
-74 -32 -1 c-41 -1 -58 13 -58 48 0 33 22 54 50 47 17 -4 20 0 20 24 0 16 5
29 10 29 6 0 10 -31 10 -73z m460 52 c0 -5 -7 -9 -15 -9 -15 0 -20 12 -9 23 8
8 24 -1 24 -14z m220 -44 c0 -58 2 -65 20 -65 11 0 20 -5 20 -11 0 -6 -12 -9
-27 -7 -27 3 -28 6 -31 66 -2 46 -7 62 -17 62 -8 0 -15 5 -15 10 0 6 11 10 25
10 24 0 25 -2 25 -65z m-3732 27 c4 -26 22 -20 22 9 0 12 7 19 20 19 18 0 20
-7 20 -70 0 -56 -3 -70 -15 -70 -11 0 -15 11 -15 43 0 30 -3 38 -10 27 -10
-16 -12 -15 -28 15 -10 17 -11 12 -12 -32 0 -29 -4 -53 -10 -53 -6 0 -10 30
-10 71 0 62 2 70 18 67 9 -2 18 -13 20 -26z m1014 13 c-2 -5 -15 -8 -29 -7
-14 2 -30 -2 -34 -10 -13 -19 -11 -62 3 -76 17 -17 48 -15 48 3 0 8 -7 15 -15
15 -8 0 -15 5 -15 10 0 6 12 10 26 10 23 0 25 -3 22 -32 -3 -29 -7 -33 -34
-36 -41 -4 -64 20 -64 65 0 48 25 75 64 71 17 -2 30 -7 28 -13z m1680 0 c-2
-5 -12 -9 -23 -7 -28 5 -49 -16 -49 -47 0 -35 17 -51 53 -51 16 0 26 -4 22
-10 -10 -16 -57 -12 -77 7 -23 21 -24 80 -1 105 18 20 81 22 75 3z m-2535 -33
c6 -4 13 -16 15 -27 2 -16 -3 -21 -29 -23 -41 -4 -43 -22 -3 -22 17 0 30 -4
30 -10 0 -16 -52 -11 -72 7 -22 20 -23 46 -2 67 16 17 42 20 61 8z m131 -44
c2 -29 -1 -48 -7 -48 -6 0 -11 18 -11 40 0 33 -3 40 -20 40 -17 0 -20 -7 -20
-40 0 -22 -4 -40 -10 -40 -5 0 -10 22 -10 49 l0 49 38 -1 c37 -2 37 -2 40 -49z
m62 11 c0 -33 3 -40 18 -37 12 2 18 14 20 41 4 46 22 49 22 3 0 -19 3 -41 6
-49 4 -12 -3 -15 -33 -15 -21 0 -44 5 -50 10 -19 15 -17 88 2 88 11 0 15 -11
15 -41z m407 33 c6 -4 13 -16 15 -27 2 -16 -3 -21 -29 -23 -41 -4 -43 -22 -3
-22 17 0 30 -4 30 -10 0 -16 -52 -11 -72 7 -22 20 -23 46 -2 67 16 17 42 20
61 8z m360 0 c6 -4 13 -16 15 -27 2 -16 -3 -21 -29 -23 -41 -4 -43 -22 -3 -22
17 0 30 -4 30 -10 0 -16 -52 -11 -72 7 -22 20 -23 46 -2 67 16 17 42 20 61 8z
m131 -44 c2 -29 -1 -48 -7 -48 -6 0 -11 18 -11 40 0 33 -3 40 -20 40 -17 0
-20 -7 -20 -40 0 -22 -4 -40 -10 -40 -5 0 -10 22 -10 49 l0 49 38 -1 c37 -2
37 -2 40 -49z m109 44 c6 -4 13 -16 15 -27 2 -16 -3 -21 -29 -23 -41 -4 -43
-22 -3 -22 17 0 30 -4 30 -10 0 -16 -52 -11 -72 7 -22 20 -23 46 -2 67 16 17
42 20 61 8z m84 -4 c1 -7 0 -25 -1 -40 -1 -20 3 -28 14 -28 9 0 16 -4 16 -10
0 -5 -16 -10 -35 -10 -19 0 -35 5 -35 10 0 6 5 10 10 10 6 0 10 14 10 30 0 17
-4 30 -10 30 -5 0 -10 5 -10 10 0 15 40 12 41 -2z m56 -3 c3 -9 2 -19 -2 -23
-4 -4 -10 -1 -12 6 -3 6 -11 12 -19 12 -8 0 -14 5 -14 10 0 16 40 11 47 -5z
m97 -1 c9 -8 16 -24 16 -34 0 -10 3 -25 6 -33 5 -13 -3 -15 -43 -14 -42 2 -48
5 -51 25 -3 18 2 23 27 28 37 8 41 24 6 24 -14 0 -25 5 -25 10 0 16 47 12 64
-6z m133 0 c2 -7 -8 -9 -28 -6 -29 4 -30 3 -27 -24 2 -23 9 -30 31 -32 35 -4
35 -22 0 -22 -30 0 -63 25 -63 48 0 40 76 71 87 36z m103 -24 c0 -29 4 -40 15
-40 8 0 15 -4 15 -10 0 -5 -23 -10 -51 -10 -31 0 -48 4 -44 10 3 6 13 10 21
10 9 0 14 11 14 30 0 20 -5 30 -15 30 -8 0 -15 5 -15 10 0 6 14 10 30 10 28 0
30 -2 30 -40z m128 28 c7 -7 12 -24 12 -38 0 -52 -61 -71 -82 -25 -23 51 32
101 70 63z m130 -40 c2 -29 -1 -48 -7 -48 -6 0 -11 18 -11 40 0 33 -3 40 -20
40 -17 0 -20 -7 -20 -40 0 -22 -4 -40 -10 -40 -5 0 -10 22 -10 49 l0 49 38 -1
c37 -2 37 -2 40 -49z m349 44 c6 -4 13 -16 15 -27 2 -16 -3 -21 -29 -23 -41
-4 -43 -22 -3 -22 17 0 30 -4 30 -10 0 -16 -52 -11 -72 7 -22 20 -23 46 -2 67
16 17 42 20 61 8z m324 -4 c1 -7 0 -25 -1 -40 -1 -20 3 -28 14 -28 9 0 16 -4
16 -10 0 -5 -16 -10 -35 -10 -19 0 -35 5 -35 10 0 6 5 10 10 10 6 0 10 14 10
30 0 17 -4 30 -10 30 -5 0 -10 5 -10 10 0 15 40 12 41 -2z m56 -3 c3 -9 2 -19
-2 -23 -4 -4 -10 -1 -12 6 -3 6 -11 12 -19 12 -8 0 -14 5 -14 10 0 16 40 11
47 -5z m100 7 c6 -4 13 -16 15 -27 2 -16 -3 -21 -29 -23 -41 -4 -43 -22 -3
-22 17 0 30 -4 30 -10 0 -16 -52 -11 -72 7 -22 20 -23 46 -2 67 16 17 42 20
61 8z m240 0 c6 -4 13 -16 15 -27 2 -16 -3 -21 -29 -23 -41 -4 -43 -22 -3 -22
17 0 30 -4 30 -10 0 -16 -52 -11 -72 7 -22 20 -23 46 -2 67 16 17 42 20 61 8z
m131 -44 c2 -29 -1 -48 -7 -48 -6 0 -11 18 -11 40 0 33 -3 40 -20 40 -17 0
-20 -7 -20 -40 0 -22 -4 -40 -10 -40 -5 0 -10 22 -10 49 l0 49 38 -1 c37 -2
37 -2 40 -49z m119 36 c2 -7 -8 -9 -28 -6 -29 4 -30 3 -27 -24 2 -23 9 -30 31
-32 35 -4 35 -22 0 -22 -30 0 -63 25 -63 48 0 40 76 71 87 36z m103 -24 c0
-29 4 -40 15 -40 8 0 15 -4 15 -10 0 -5 -23 -10 -51 -10 -31 0 -48 4 -44 10 3
6 13 10 21 10 9 0 14 11 14 30 0 20 -5 30 -15 30 -8 0 -15 5 -15 10 0 6 14 10
30 10 28 0 30 -2 30 -40z m124 24 c9 -8 16 -24 16 -34 0 -10 3 -25 6 -33 5
-13 -3 -15 -43 -14 -42 2 -48 5 -51 25 -3 18 2 23 27 28 37 8 41 24 6 24 -14
0 -25 5 -25 10 0 16 47 12 64 -6z m243 8 c6 -4 13 -16 15 -27 2 -16 -3 -21
-29 -23 -41 -4 -43 -22 -3 -22 17 0 30 -4 30 -10 0 -16 -52 -11 -72 7 -22 20
-23 46 -2 67 16 17 42 20 61 8z m133 -2 c0 -5 -13 -10 -30 -10 -39 0 -39 -16
1 -24 25 -5 30 -10 27 -28 -2 -19 -10 -24 -40 -26 -22 -2 -38 1 -38 7 0 6 14
11 30 11 17 0 30 4 30 9 0 5 -13 11 -30 15 -29 5 -41 32 -23 49 10 11 73 8 73
-3z m90 -5 c0 -8 -4 -15 -9 -15 -13 0 -22 16 -14 24 11 11 23 6 23 -9z m0 -70
c0 -8 -4 -15 -9 -15 -13 0 -22 16 -14 24 11 11 23 6 23 -9z m-3320 -334 c0 -5
-10 -11 -22 -13 -31 -4 -39 -48 -9 -48 12 0 21 -4 21 -10 0 -5 -9 -10 -20 -10
-16 0 -20 -7 -20 -30 0 -16 -4 -30 -10 -30 -5 0 -10 14 -10 30 0 20 -5 30 -15
30 -8 0 -15 5 -15 10 0 6 7 10 15 10 9 0 15 9 15 23 0 13 5 28 12 35 14 14 58
16 58 3z m90 -12 c0 -5 -7 -9 -15 -9 -15 0 -20 12 -9 23 8 8 24 -1 24 -14z
m-850 -49 c0 -47 3 -60 15 -60 8 0 15 -4 15 -10 0 -5 -18 -10 -40 -10 -22 0
-40 5 -40 10 0 6 7 10 15 10 11 0 15 12 15 50 0 40 -3 48 -15 44 -8 -4 -15 -2
-15 4 0 6 6 13 13 15 32 14 37 7 37 -53z m392 45 c-2 -5 -12 -9 -23 -7 -28 5
-49 -16 -49 -47 0 -35 17 -51 53 -51 16 0 26 -4 22 -10 -10 -16 -57 -12 -77 7
-23 21 -24 80 -1 105 18 20 81 22 75 3z m1328 5 c0 -5 -16 -10 -35 -10 -28 0
-35 -4 -35 -20 0 -15 7 -20 25 -20 14 0 25 -4 25 -10 0 -5 -11 -10 -25 -10
-18 0 -25 -5 -25 -20 0 -16 7 -20 35 -20 19 0 35 -4 35 -10 0 -5 -22 -10 -50
-10 l-50 0 0 70 0 70 50 0 c28 0 50 -4 50 -10z m420 -15 c0 -9 9 -15 25 -15
14 0 25 -4 25 -10 0 -5 -12 -10 -26 -10 -22 0 -25 -4 -22 -27 2 -20 9 -29 26
-31 29 -4 29 -22 -1 -22 -31 0 -47 18 -47 51 0 15 -6 30 -12 33 -10 5 -10 7 0
12 6 3 12 12 12 20 0 8 5 14 10 14 6 0 10 -7 10 -15z m-1642 -27 c15 -15 15
-61 0 -76 -21 -21 -57 -14 -70 13 -23 51 32 101 70 63z m130 -40 c2 -29 -1
-48 -7 -48 -6 0 -11 18 -11 40 0 33 -3 40 -20 40 -17 0 -20 -7 -20 -40 0 -22
-4 -40 -10 -40 -5 0 -10 22 -10 49 l0 49 38 -1 c37 -2 37 -2 40 -49z m222 12
c0 -29 4 -40 15 -40 8 0 15 -4 15 -10 0 -5 -23 -10 -51 -10 -31 0 -48 4 -44
10 3 6 13 10 21 10 9 0 14 11 14 30 0 20 -5 30 -15 30 -8 0 -15 5 -15 10 0 6
14 10 30 10 28 0 30 -2 30 -40z m140 -21 c0 -62 -13 -79 -59 -79 -31 0 -26 18
6 22 14 2 28 8 30 15 3 7 -3 9 -16 6 -28 -7 -51 14 -51 46 0 36 17 51 57 49
l33 -1 0 -58z m60 20 c0 -33 3 -40 18 -37 12 2 18 14 20 41 4 46 22 49 22 3 0
-19 3 -41 6 -49 4 -12 -3 -15 -33 -15 -21 0 -44 5 -50 10 -19 15 -17 88 2 88
11 0 15 -11 15 -41z m131 29 c1 -7 0 -25 -1 -40 -1 -20 3 -28 14 -28 9 0 16
-4 16 -10 0 -5 -16 -10 -35 -10 -19 0 -35 5 -35 10 0 6 5 10 10 10 6 0 10 14
10 30 0 17 -4 30 -10 30 -5 0 -10 5 -10 10 0 15 40 12 41 -2z m56 -3 c3 -9 2
-19 -2 -23 -4 -4 -10 -1 -12 6 -3 6 -11 12 -19 12 -8 0 -14 5 -14 10 0 16 40
11 47 -5z m97 -1 c9 -8 16 -24 16 -34 0 -10 3 -25 6 -33 5 -13 -3 -15 -43 -14
-42 2 -48 5 -51 25 -3 18 2 23 27 28 37 8 41 24 6 24 -14 0 -25 5 -25 10 0 16
47 12 64 -6z m87 4 c1 -7 0 -25 -1 -40 -1 -20 3 -28 14 -28 9 0 16 -4 16 -10
0 -5 -16 -10 -35 -10 -19 0 -35 5 -35 10 0 6 5 10 10 10 6 0 10 14 10 30 0 17
-4 30 -10 30 -5 0 -10 5 -10 10 0 15 40 12 41 -2z m56 -3 c3 -9 2 -19 -2 -23
-4 -4 -10 -1 -12 6 -3 6 -11 12 -19 12 -8 0 -14 5 -14 10 0 16 40 11 47 -5z
m294 -20 c16 -43 24 -44 35 -3 5 17 15 33 22 36 9 3 7 -10 -6 -45 -22 -60 -43
-66 -61 -16 -8 21 -16 44 -18 51 -3 6 0 12 5 12 6 0 16 -16 23 -35z m166 27
c6 -4 13 -16 15 -27 2 -16 -3 -21 -29 -23 -41 -4 -43 -22 -3 -22 17 0 30 -4
30 -10 0 -16 -52 -11 -72 7 -22 20 -23 46 -2 67 16 17 42 20 61 8z m131 -44
c2 -29 -1 -48 -7 -48 -6 0 -11 18 -11 40 0 33 -3 40 -20 40 -17 0 -20 -7 -20
-40 0 -22 -4 -40 -10 -40 -5 0 -10 22 -10 49 l0 49 38 -1 c37 -2 37 -2 40 -49z
m230 40 c7 -7 12 -24 12 -38 0 -52 -61 -71 -82 -25 -23 51 32 101 70 63z
m-2178 -73 c0 -8 -4 -15 -9 -15 -13 0 -22 16 -14 24 11 11 23 6 23 -9z m1120
-104 c0 -5 -10 -11 -22 -13 -31 -4 -39 -48 -9 -48 12 0 21 -4 21 -10 0 -5 -9
-10 -20 -10 -16 0 -20 -7 -20 -30 0 -16 -4 -30 -10 -30 -5 0 -10 14 -10 30 0
20 -5 30 -15 30 -8 0 -15 5 -15 10 0 6 7 10 15 10 9 0 15 9 15 23 0 13 5 28
12 35 14 14 58 16 58 3z m90 -12 c0 -5 -7 -9 -15 -9 -15 0 -20 12 -9 23 8 8
24 -1 24 -14z m720 0 c0 -5 -7 -9 -15 -9 -15 0 -20 12 -9 23 8 8 24 -1 24 -14z
m500 -52 l0 -74 -32 -1 c-41 -1 -58 13 -58 48 0 33 22 54 50 47 17 -4 20 0 20
24 0 16 5 29 10 29 6 0 10 -31 10 -73z m200 8 c0 -58 2 -65 20 -65 11 0 20 -5
20 -11 0 -6 -12 -9 -27 -7 -27 3 -28 6 -31 66 -2 46 -7 62 -17 62 -8 0 -15 5
-15 10 0 6 11 10 25 10 24 0 25 -2 25 -65z m-2732 43 c19 -19 14 -44 -14 -77
l-26 -31 26 0 c13 0 28 -4 31 -10 4 -6 -13 -10 -44 -10 -28 0 -51 3 -51 7 0 4
16 21 36 39 45 41 43 70 -4 67 -27 -1 -31 1 -21 13 14 17 51 18 67 2z m312
-43 c15 -62 21 -61 40 8 7 26 17 47 22 47 6 0 7 -10 4 -22 -4 -13 -12 -44 -18
-70 -17 -70 -40 -65 -61 12 -19 68 -20 80 -9 80 5 0 15 -25 22 -55z m542 40
c-2 -5 -12 -9 -23 -7 -28 5 -49 -16 -49 -47 0 -35 17 -51 53 -51 16 0 26 -4
22 -10 -10 -16 -57 -12 -77 7 -23 21 -24 80 -1 105 18 20 81 22 75 3z m2168 5
c0 -5 -16 -10 -35 -10 -28 0 -35 -4 -35 -20 0 -15 7 -20 25 -20 14 0 25 -4 25
-10 0 -5 -11 -10 -25 -10 -18 0 -25 -5 -25 -20 0 -16 7 -20 35 -20 19 0 35 -4
35 -10 0 -5 -22 -10 -50 -10 l-50 0 0 70 0 70 50 0 c28 0 50 -4 50 -10z m420
-15 c0 -9 9 -15 25 -15 14 0 25 -4 25 -10 0 -5 -12 -10 -26 -10 -22 0 -25 -4
-22 -27 2 -20 9 -29 26 -31 29 -4 29 -22 -1 -22 -31 0 -47 18 -47 51 0 15 -6
30 -12 33 -10 5 -10 7 0 12 6 3 12 12 12 20 0 8 5 14 10 14 6 0 10 -7 10 -15z
m-2963 -23 c6 -4 13 -16 15 -27 2 -16 -3 -21 -29 -23 -41 -4 -43 -22 -3 -22
17 0 30 -4 30 -10 0 -16 -52 -11 -72 7 -22 20 -23 46 -2 67 16 17 42 20 61 8z
m84 -4 c1 -7 0 -25 -1 -40 -1 -20 3 -28 14 -28 9 0 16 -4 16 -10 0 -5 -16 -10
-35 -10 -19 0 -35 5 -35 10 0 6 5 10 10 10 6 0 10 14 10 30 0 17 -4 30 -10 30
-5 0 -10 5 -10 10 0 15 40 12 41 -2z m56 -3 c3 -9 2 -19 -2 -23 -4 -4 -10 -1
-12 6 -3 6 -11 12 -19 12 -8 0 -14 5 -14 10 0 16 40 11 47 -5z m341 3 c15 -15
15 -61 0 -76 -38 -38 -93 12 -70 63 13 27 49 34 70 13z m130 -40 c2 -29 -1
-48 -7 -48 -6 0 -11 18 -11 40 0 33 -3 40 -20 40 -17 0 -20 -7 -20 -40 0 -22
-4 -40 -10 -40 -5 0 -10 22 -10 49 l0 49 38 -1 c37 -2 37 -2 40 -49z m222 12
c0 -29 4 -40 15 -40 8 0 15 -4 15 -10 0 -5 -23 -10 -51 -10 -31 0 -48 4 -44
10 3 6 13 10 21 10 9 0 14 11 14 30 0 20 -5 30 -15 30 -8 0 -15 5 -15 10 0 6
14 10 30 10 28 0 30 -2 30 -40z m140 -21 c0 -62 -13 -79 -59 -79 -31 0 -26 18
6 22 14 2 28 8 30 15 3 7 -3 9 -16 6 -28 -7 -51 14 -51 46 0 36 17 51 57 49
l33 -1 0 -58z m60 20 c0 -33 3 -40 18 -37 12 2 18 14 20 41 4 46 22 49 22 3 0
-19 3 -41 6 -49 4 -12 -3 -15 -33 -15 -21 0 -44 5 -50 10 -19 15 -17 88 2 88
11 0 15 -11 15 -41z m131 29 c1 -7 0 -25 -1 -40 -1 -20 3 -28 14 -28 9 0 16
-4 16 -10 0 -5 -16 -10 -35 -10 -19 0 -35 5 -35 10 0 6 5 10 10 10 6 0 10 14
10 30 0 17 -4 30 -10 30 -5 0 -10 5 -10 10 0 15 40 12 41 -2z m56 -3 c3 -9 2
-19 -2 -23 -4 -4 -10 -1 -12 6 -3 6 -11 12 -19 12 -8 0 -14 5 -14 10 0 16 40
11 47 -5z m97 -1 c9 -8 16 -24 16 -34 0 -10 3 -25 6 -33 5 -13 -3 -15 -43 -14
-42 2 -48 5 -51 25 -3 18 2 23 27 28 37 8 41 24 6 24 -14 0 -25 5 -25 10 0 16
47 12 64 -6z m133 0 c2 -7 -8 -9 -28 -6 -29 4 -30 3 -27 -24 2 -23 9 -30 31
-32 35 -4 35 -22 0 -22 -30 0 -63 25 -63 48 0 40 76 71 87 36z m103 -24 c0
-29 4 -40 15 -40 8 0 15 -4 15 -10 0 -5 -23 -10 -51 -10 -31 0 -48 4 -44 10 3
6 13 10 21 10 9 0 14 11 14 30 0 20 -5 30 -15 30 -8 0 -15 5 -15 10 0 6 14 10
30 10 28 0 30 -2 30 -40z m128 28 c7 -7 12 -24 12 -38 0 -52 -61 -71 -82 -25
-23 51 32 101 70 63z m130 -40 c2 -29 -1 -48 -7 -48 -6 0 -11 18 -11 40 0 33
-3 40 -20 40 -17 0 -20 -7 -20 -40 0 -22 -4 -40 -10 -40 -5 0 -10 22 -10 49
l0 49 38 -1 c37 -2 37 -2 40 -49z m349 44 c6 -4 13 -16 15 -27 2 -16 -3 -21
-29 -23 -41 -4 -43 -22 -3 -22 17 0 30 -4 30 -10 0 -16 -52 -11 -72 7 -22 20
-23 46 -2 67 16 17 42 20 61 8z m434 -27 c16 -43 24 -44 35 -3 5 17 15 33 22
36 9 3 7 -10 -6 -45 -22 -60 -43 -66 -61 -16 -8 21 -16 44 -18 51 -3 6 0 12 5
12 6 0 16 -16 23 -35z m166 27 c6 -4 13 -16 15 -27 2 -16 -3 -21 -29 -23 -41
-4 -43 -22 -3 -22 17 0 30 -4 30 -10 0 -16 -52 -11 -72 7 -22 20 -23 46 -2 67
16 17 42 20 61 8z m131 -44 c2 -29 -1 -48 -7 -48 -6 0 -11 18 -11 40 0 33 -3
40 -20 40 -17 0 -20 -7 -20 -40 0 -22 -4 -40 -10 -40 -5 0 -10 22 -10 49 l0
49 38 -1 c37 -2 37 -2 40 -49z m230 40 c7 -7 12 -24 12 -38 0 -52 -61 -71 -82
-25 -23 51 32 101 70 63z m-3498 -73 c0 -8 -4 -15 -9 -15 -13 0 -22 16 -14 24
11 11 23 6 23 -9z m1590 -168 l0 -74 -32 -1 c-41 -1 -58 13 -58 48 0 33 22 54
50 47 17 -4 20 0 20 24 0 16 5 29 10 29 6 0 10 -31 10 -73z m460 52 c0 -5 -7
-9 -15 -9 -15 0 -20 12 -9 23 8 8 24 -1 24 -14z m220 -44 c0 -58 2 -65 20 -65
11 0 20 -5 20 -11 0 -6 -12 -9 -27 -7 -27 3 -28 6 -31 66 -2 46 -7 62 -17 62
-8 0 -15 5 -15 10 0 6 11 10 25 10 24 0 25 -2 25 -65z m-2369 39 c9 -11 10
-20 2 -32 -7 -12 -7 -22 1 -35 16 -25 -4 -51 -43 -55 -17 -2 -31 1 -31 7 0 6
14 11 30 11 36 0 42 29 9 37 l-22 6 23 17 c28 21 18 44 -16 36 -23 -6 -32 3
-17 17 12 13 50 7 64 -9z m361 -49 c21 -70 21 -75 8 -75 -5 0 -10 7 -10 15 0
10 -10 15 -30 15 -20 0 -30 -5 -30 -15 0 -8 -4 -15 -10 -15 -14 0 -13 11 7 81
21 77 40 75 65 -6z m970 50 c-2 -5 -12 -9 -23 -7 -28 5 -49 -16 -49 -47 0 -35
17 -51 53 -51 16 0 26 -4 22 -10 -10 -16 -57 -12 -77 7 -23 21 -24 80 -1 105
18 20 81 22 75 3z m-842 -86 c0 -62 -13 -79 -59 -79 -31 0 -26 18 6 22 14 2
28 8 30 15 3 7 -3 9 -16 6 -28 -7 -51 14 -51 46 0 36 17 51 57 49 l33 -1 0
-58z m71 49 c1 -7 0 -25 -1 -40 -1 -20 3 -28 14 -28 9 0 16 -4 16 -10 0 -5
-16 -10 -35 -10 -19 0 -35 5 -35 10 0 6 5 10 10 10 6 0 10 14 10 30 0 17 -4
30 -10 30 -5 0 -10 5 -10 10 0 15 40 12 41 -2z m56 -3 c3 -9 2 -19 -2 -23 -4
-4 -10 -1 -12 6 -3 6 -11 12 -19 12 -8 0 -14 5 -14 10 0 16 40 11 47 -5z m100
7 c6 -4 13 -16 15 -27 2 -16 -3 -21 -29 -23 -41 -4 -43 -22 -3 -22 17 0 30 -4
30 -10 0 -16 -52 -11 -72 7 -22 20 -23 46 -2 67 16 17 42 20 61 8z m133 -53
c0 -62 -13 -79 -59 -79 -31 0 -26 18 6 22 14 2 28 8 30 15 3 7 -3 9 -16 6 -28
-7 -51 14 -51 46 0 36 17 51 57 49 l33 -1 0 -58z m104 45 c9 -8 16 -24 16 -34
0 -10 3 -25 6 -33 5 -13 -3 -15 -43 -14 -42 2 -48 5 -51 25 -3 18 2 23 27 28
37 8 41 24 6 24 -14 0 -25 5 -25 10 0 16 47 12 64 -6z m87 4 c1 -7 0 -25 -1
-40 -1 -20 3 -28 14 -28 9 0 16 -4 16 -10 0 -5 -16 -10 -35 -10 -19 0 -35 5
-35 10 0 6 5 10 10 10 6 0 10 14 10 30 0 17 -4 30 -10 30 -5 0 -10 5 -10 10 0
15 40 12 41 -2z m56 -3 c3 -9 2 -19 -2 -23 -4 -4 -10 -1 -12 6 -3 6 -11 12
-19 12 -8 0 -14 5 -14 10 0 16 40 11 47 -5z m304 3 c1 -7 0 -25 -1 -40 -1 -20
3 -28 14 -28 9 0 16 -4 16 -10 0 -5 -16 -10 -35 -10 -19 0 -35 5 -35 10 0 6 5
10 10 10 6 0 10 14 10 30 0 17 -4 30 -10 30 -5 0 -10 5 -10 10 0 15 40 12 41
-2z m56 -3 c3 -9 2 -19 -2 -23 -4 -4 -10 -1 -12 6 -3 6 -11 12 -19 12 -8 0
-14 5 -14 10 0 16 40 11 47 -5z m100 7 c6 -4 13 -16 15 -27 2 -16 -3 -21 -29
-23 -41 -4 -43 -22 -3 -22 17 0 30 -4 30 -10 0 -16 -52 -11 -72 7 -22 20 -23
46 -2 67 16 17 42 20 61 8z m240 0 c6 -4 13 -16 15 -27 2 -16 -3 -21 -29 -23
-41 -4 -43 -22 -3 -22 17 0 30 -4 30 -10 0 -16 -52 -11 -72 7 -22 20 -23 46
-2 67 16 17 42 20 61 8z m131 -44 c2 -29 -1 -48 -7 -48 -6 0 -11 18 -11 40 0
33 -3 40 -20 40 -17 0 -20 -7 -20 -40 0 -22 -4 -40 -10 -40 -5 0 -10 22 -10
49 l0 49 38 -1 c37 -2 37 -2 40 -49z m119 36 c2 -7 -8 -9 -28 -6 -29 4 -30 3
-27 -24 2 -23 9 -30 31 -32 35 -4 35 -22 0 -22 -30 0 -63 25 -63 48 0 40 76
71 87 36z m103 -24 c0 -29 4 -40 15 -40 8 0 15 -4 15 -10 0 -5 -23 -10 -51
-10 -31 0 -48 4 -44 10 3 6 13 10 21 10 9 0 14 11 14 30 0 20 -5 30 -15 30 -8
0 -15 5 -15 10 0 6 14 10 30 10 28 0 30 -2 30 -40z m124 24 c9 -8 16 -24 16
-34 0 -10 3 -25 6 -33 5 -13 -3 -15 -43 -14 -42 2 -48 5 -51 25 -3 18 2 23 27
28 37 8 41 24 6 24 -14 0 -25 5 -25 10 0 16 47 12 64 -6z m-2174 -69 c0 -8 -4
-15 -9 -15 -13 0 -22 16 -14 24 11 11 23 6 23 -9z m990 -168 l0 -74 -32 -1
c-41 -1 -58 13 -58 48 0 33 22 54 50 47 17 -4 20 0 20 24 0 16 5 29 10 29 6 0
10 -31 10 -73z m440 8 c0 -58 2 -65 20 -65 11 0 20 -5 20 -11 0 -6 -12 -9 -27
-7 -27 3 -28 6 -31 66 -2 46 -7 62 -17 62 -8 0 -15 5 -15 10 0 6 11 10 25 10
24 0 25 -2 25 -65z m880 -8 l0 -74 -32 -1 c-41 -1 -58 13 -58 48 0 33 22 54
50 47 17 -4 20 0 20 24 0 16 5 29 10 29 6 0 10 -31 10 -73z m460 52 c0 -5 -7
-9 -15 -9 -15 0 -20 12 -9 23 8 8 24 -1 24 -14z m220 -44 c0 -58 2 -65 20 -65
11 0 20 -5 20 -11 0 -6 -12 -9 -27 -7 -27 3 -28 6 -31 66 -2 46 -7 62 -17 62
-8 0 -15 5 -15 10 0 6 11 10 25 10 24 0 25 -2 25 -65z m-3078 3 c2 -29 2 -61
0 -70 -5 -22 -22 -24 -22 -3 0 11 -11 15 -36 15 -36 0 -36 1 -30 31 3 17 6 40
6 50 0 11 7 19 15 19 8 0 13 -6 11 -12 -18 -58 -17 -68 9 -68 23 0 25 4 25 45
0 62 17 57 22 -7z m298 -3 c15 -62 21 -61 40 8 7 26 17 47 22 47 6 0 7 -10 4
-22 -4 -13 -12 -44 -18 -70 -17 -70 -40 -65 -61 12 -19 68 -20 80 -9 80 5 0
15 -25 22 -55z m1742 40 c-2 -5 -12 -9 -23 -7 -28 5 -49 -16 -49 -47 0 -35 17
-51 53 -51 16 0 26 -4 22 -10 -10 -16 -57 -12 -77 7 -23 21 -24 80 -1 105 18
20 81 22 75 3z m-1252 -10 c0 -9 9 -15 25 -15 14 0 25 -4 25 -10 0 -5 -12 -10
-26 -10 -22 0 -25 -4 -22 -27 2 -20 9 -29 26 -31 29 -4 29 -22 -1 -22 -31 0
-47 18 -47 51 0 15 -6 30 -12 33 -10 5 -10 7 0 12 6 3 12 12 12 20 0 8 5 14
10 14 6 0 10 -7 10 -15z m-323 -23 c6 -4 13 -16 15 -27 2 -16 -3 -21 -29 -23
-41 -4 -43 -22 -3 -22 17 0 30 -4 30 -10 0 -16 -52 -11 -72 7 -22 20 -23 46
-2 67 16 17 42 20 61 8z m84 -4 c1 -7 0 -25 -1 -40 -1 -20 3 -28 14 -28 9 0
16 -4 16 -10 0 -5 -16 -10 -35 -10 -19 0 -35 5 -35 10 0 6 5 10 10 10 6 0 10
14 10 30 0 17 -4 30 -10 30 -5 0 -10 5 -10 10 0 15 40 12 41 -2z m56 -3 c3 -9
2 -19 -2 -23 -4 -4 -10 -1 -12 6 -3 6 -11 12 -19 12 -8 0 -14 5 -14 10 0 16
40 11 47 -5z m341 3 c15 -15 15 -61 0 -76 -21 -21 -57 -14 -70 13 -23 51 32
101 70 63z m236 -4 c9 -8 16 -24 16 -34 0 -10 3 -25 6 -33 5 -13 -3 -15 -43
-14 -42 2 -48 5 -51 25 -3 18 2 23 27 28 37 8 41 24 6 24 -14 0 -25 5 -25 10
0 16 47 12 64 -6z m136 6 c0 -5 -13 -10 -30 -10 -39 0 -39 -16 1 -24 25 -5 30
-10 27 -28 -2 -19 -10 -24 -40 -26 -22 -2 -38 1 -38 7 0 6 14 11 30 11 17 0
30 4 30 9 0 5 -13 11 -30 15 -29 5 -41 32 -23 49 10 11 73 8 73 -3z m344 -6
c9 -8 16 -24 16 -34 0 -10 3 -25 6 -33 5 -13 -3 -15 -43 -14 -42 2 -48 5 -51
25 -3 18 2 23 27 28 37 8 41 24 6 24 -14 0 -25 5 -25 10 0 16 47 12 64 -6z
m136 6 c0 -5 -13 -10 -30 -10 -39 0 -39 -16 1 -24 25 -5 30 -10 27 -28 -2 -19
-10 -24 -40 -26 -22 -2 -38 1 -38 7 0 6 14 11 30 11 17 0 30 4 30 9 0 5 -13
11 -30 15 -29 5 -41 32 -23 49 10 11 73 8 73 -3z m311 -2 c1 -7 0 -25 -1 -40
-1 -20 3 -28 14 -28 9 0 16 -4 16 -10 0 -5 -16 -10 -35 -10 -19 0 -35 5 -35
10 0 6 5 10 10 10 6 0 10 14 10 30 0 17 -4 30 -10 30 -5 0 -10 5 -10 10 0 15
40 12 41 -2z m56 -3 c3 -9 2 -19 -2 -23 -4 -4 -10 -1 -12 6 -3 6 -11 12 -19
12 -8 0 -14 5 -14 10 0 16 40 11 47 -5z m100 7 c6 -4 13 -16 15 -27 2 -16 -3
-21 -29 -23 -41 -4 -43 -22 -3 -22 17 0 30 -4 30 -10 0 -16 -52 -11 -72 7 -22
20 -23 46 -2 67 16 17 42 20 61 8z m240 0 c6 -4 13 -16 15 -27 2 -16 -3 -21
-29 -23 -41 -4 -43 -22 -3 -22 17 0 30 -4 30 -10 0 -16 -52 -11 -72 7 -22 20
-23 46 -2 67 16 17 42 20 61 8z m131 -44 c2 -29 -1 -48 -7 -48 -6 0 -11 18
-11 40 0 33 -3 40 -20 40 -17 0 -20 -7 -20 -40 0 -22 -4 -40 -10 -40 -5 0 -10
22 -10 49 l0 49 38 -1 c37 -2 37 -2 40 -49z m119 36 c2 -7 -8 -9 -28 -6 -29 4
-30 3 -27 -24 2 -23 9 -30 31 -32 35 -4 35 -22 0 -22 -30 0 -63 25 -63 48 0
40 76 71 87 36z m103 -24 c0 -29 4 -40 15 -40 8 0 15 -4 15 -10 0 -5 -23 -10
-51 -10 -31 0 -48 4 -44 10 3 6 13 10 21 10 9 0 14 11 14 30 0 20 -5 30 -15
30 -8 0 -15 5 -15 10 0 6 14 10 30 10 28 0 30 -2 30 -40z m124 24 c9 -8 16
-24 16 -34 0 -10 3 -25 6 -33 5 -13 -3 -15 -43 -14 -42 2 -48 5 -51 25 -3 18
2 23 27 28 37 8 41 24 6 24 -14 0 -25 5 -25 10 0 16 47 12 64 -6z m243 8 c6
-4 13 -16 15 -27 2 -16 -3 -21 -29 -23 -41 -4 -43 -22 -3 -22 17 0 30 -4 30
-10 0 -16 -52 -11 -72 7 -22 20 -23 46 -2 67 16 17 42 20 61 8z m133 -2 c0 -5
-13 -10 -30 -10 -39 0 -39 -16 1 -24 25 -5 30 -10 27 -28 -2 -19 -10 -24 -40
-26 -22 -2 -38 1 -38 7 0 6 14 11 30 11 17 0 30 4 30 9 0 5 -13 11 -30 15 -29
5 -41 32 -23 49 10 11 73 8 73 -3z m-3270 -75 c0 -8 -4 -15 -9 -15 -13 0 -22
16 -14 24 11 11 23 6 23 -9z m470 -160 c0 -58 2 -65 20 -65 11 0 20 -5 20 -11
0 -6 -12 -9 -27 -7 -27 3 -28 6 -31 66 -2 46 -7 62 -17 62 -8 0 -15 5 -15 10
0 6 11 10 25 10 24 0 25 -2 25 -65z m140 44 c0 -5 -7 -9 -15 -9 -15 0 -20 12
-9 23 8 8 24 -1 24 -14z m-700 1 c0 -5 -13 -10 -30 -10 -20 0 -30 -5 -30 -15
0 -9 9 -15 25 -15 33 0 52 -38 36 -69 -15 -28 -66 -29 -81 -1 -9 16 -8 20 5
20 8 0 15 -4 15 -10 0 -14 38 -12 43 3 8 23 -5 37 -34 37 -26 0 -29 3 -29 35
0 34 1 35 40 35 22 0 40 -4 40 -10z m358 -7 c2 -9 -5 -11 -27 -7 -42 9 -42
-20 -1 -41 33 -17 42 -58 14 -69 -24 -9 -62 -7 -69 4 -4 6 8 10 29 10 45 0 48
23 6 45 -29 15 -41 51 -23 69 11 11 66 2 71 -11z m106 -39 c9 -8 16 -24 16
-34 0 -10 3 -25 6 -33 5 -13 -3 -15 -43 -14 -42 2 -48 5 -51 25 -3 18 2 23 27
28 37 8 41 24 6 24 -14 0 -25 5 -25 10 0 16 47 12 64 -6z m236 -24 c0 -29 4
-40 15 -40 8 0 15 -4 15 -10 0 -5 -23 -10 -51 -10 -31 0 -48 4 -44 10 3 6 13
10 21 10 9 0 14 11 14 30 0 20 -5 30 -15 30 -8 0 -15 5 -15 10 0 6 14 10 30
10 28 0 30 -2 30 -40z m91 28 c1 -7 0 -25 -1 -40 -1 -20 3 -28 14 -28 9 0 16
-4 16 -10 0 -5 -16 -10 -35 -10 -19 0 -35 5 -35 10 0 6 5 10 10 10 6 0 10 14
10 30 0 17 -4 30 -10 30 -5 0 -10 5 -10 10 0 15 40 12 41 -2z m56 -3 c3 -9 2
-19 -2 -23 -4 -4 -10 -1 -12 6 -3 6 -11 12 -19 12 -8 0 -14 5 -14 10 0 16 40
11 47 -5z m-757 -70 c0 -8 -4 -15 -9 -15 -13 0 -22 16 -14 24 11 11 23 6 23
-9z m230 -160 c0 -58 2 -65 20 -65 11 0 20 -5 20 -11 0 -6 -12 -9 -27 -7 -27
3 -28 6 -31 66 -2 46 -7 62 -17 62 -8 0 -15 5 -15 10 0 6 11 10 25 10 24 0 25
-2 25 -65z m500 44 c0 -5 -7 -9 -15 -9 -15 0 -20 12 -9 23 8 8 24 -1 24 -14z
m1440 0 c0 -5 -7 -9 -15 -9 -15 0 -20 12 -9 23 8 8 24 -1 24 -14z m-2142 -6
c2 -9 -5 -11 -27 -7 -42 9 -42 -20 -1 -41 33 -17 42 -58 14 -69 -24 -9 -62 -7
-69 4 -4 6 8 10 29 10 45 0 48 23 6 45 -29 15 -41 51 -23 69 11 11 66 2 71
-11z m1796 1 c9 -9 16 -32 16 -54 0 -44 -20 -70 -55 -70 -28 0 -45 26 -45 70
0 17 5 40 10 51 13 23 53 25 74 3z m-1687 -32 c6 -4 13 -16 15 -27 2 -16 -3
-21 -29 -23 -41 -4 -43 -22 -3 -22 17 0 30 -4 30 -10 0 -16 -52 -11 -72 7 -22
20 -23 46 -2 67 16 17 42 20 61 8z m240 0 c6 -4 13 -16 15 -27 2 -16 -3 -21
-29 -23 -41 -4 -43 -22 -3 -22 17 0 30 -4 30 -10 0 -16 -52 -11 -72 7 -22 20
-23 46 -2 67 16 17 42 20 61 8z m130 -8 c2 -7 -8 -9 -28 -6 -29 4 -30 3 -27
-24 2 -23 9 -30 31 -32 35 -4 35 -22 0 -22 -30 0 -63 25 -63 48 0 40 76 71 87
36z m120 0 c2 -7 -8 -9 -28 -6 -29 4 -30 3 -27 -24 2 -23 9 -30 31 -32 35 -4
35 -22 0 -22 -30 0 -63 25 -63 48 0 40 76 71 87 36z m103 -24 c0 -29 4 -40 15
-40 8 0 15 -4 15 -10 0 -5 -23 -10 -51 -10 -31 0 -48 4 -44 10 3 6 13 10 21
10 9 0 14 11 14 30 0 20 -5 30 -15 30 -8 0 -15 5 -15 10 0 6 14 10 30 10 28 0
30 -2 30 -40z m128 28 c15 -15 15 -61 0 -76 -38 -38 -93 12 -70 63 13 27 49
34 70 13z m130 -40 c2 -29 -1 -48 -7 -48 -6 0 -11 18 -11 40 0 33 -3 40 -20
40 -17 0 -20 -7 -20 -40 0 -22 -4 -40 -10 -40 -5 0 -10 22 -10 49 l0 49 38 -1
c37 -2 37 -2 40 -49z m109 44 c6 -4 13 -16 15 -27 2 -16 -3 -21 -29 -23 -41
-4 -43 -22 -3 -22 17 0 30 -4 30 -10 0 -16 -52 -11 -72 7 -22 20 -23 46 -2 67
16 17 42 20 61 8z m193 -33 c0 -33 3 -40 18 -37 12 2 18 14 20 41 4 46 22 49
22 3 0 -19 3 -41 6 -49 4 -12 -3 -15 -33 -15 -21 0 -44 5 -50 10 -19 15 -17
88 2 88 11 0 15 -11 15 -41z m178 -11 c2 -29 -1 -48 -7 -48 -6 0 -11 18 -11
40 0 33 -3 40 -20 40 -17 0 -20 -7 -20 -40 0 -22 -4 -40 -10 -40 -5 0 -10 22
-10 49 l0 49 38 -1 c37 -2 37 -2 40 -49z m106 36 c9 -8 16 -24 16 -34 0 -10 3
-25 6 -33 5 -13 -3 -15 -43 -14 -42 2 -48 5 -51 25 -3 18 2 23 27 28 37 8 41
24 6 24 -14 0 -25 5 -25 10 0 16 47 12 64 -6z m378 -9 c17 -38 -4 -79 -37 -72
-21 3 -25 0 -25 -19 0 -13 -4 -24 -10 -24 -6 0 -10 29 -10 68 l0 69 35 1 c29
1 38 -3 47 -23z m115 9 c2 -7 -8 -9 -28 -6 -29 4 -30 3 -27 -24 2 -23 9 -30
31 -32 35 -4 35 -22 0 -22 -30 0 -63 25 -63 48 0 40 76 71 87 36z m103 -24 c0
-29 4 -40 15 -40 8 0 15 -4 15 -10 0 -5 -23 -10 -51 -10 -31 0 -48 4 -44 10 3
6 13 10 21 10 9 0 14 11 14 30 0 20 -5 30 -15 30 -8 0 -15 5 -15 10 0 6 14 10
30 10 28 0 30 -2 30 -40z m128 28 c7 -7 12 -24 12 -38 0 -52 -61 -71 -82 -25
-23 51 32 101 70 63z m130 -40 c2 -29 -1 -48 -7 -48 -6 0 -11 18 -11 40 0 33
-3 40 -20 40 -17 0 -20 -7 -20 -40 0 -22 -4 -40 -10 -40 -5 0 -10 22 -10 49
l0 49 38 -1 c37 -2 37 -2 40 -49z m92 37 c0 -8 -4 -15 -9 -15 -13 0 -22 16
-14 24 11 11 23 6 23 -9z m-2600 -15 c0 -5 -22 -10 -50 -10 -27 0 -50 5 -50
10 0 6 23 10 50 10 28 0 50 -4 50 -10z m2600 -55 c0 -8 -4 -15 -9 -15 -13 0
-22 16 -14 24 11 11 23 6 23 -9z m-2608 -157 c2 -29 2 -61 0 -70 -5 -22 -22
-24 -22 -3 0 11 -11 15 -36 15 -36 0 -36 1 -30 31 3 17 6 40 6 50 0 11 7 19
15 19 8 0 13 -6 11 -12 -18 -58 -17 -68 9 -68 23 0 25 4 25 45 0 62 17 57 22
-7z m8 -248 c0 -5 -22 -10 -50 -10 -27 0 -50 5 -50 10 0 6 23 10 50 10 28 0
50 -4 50 -10z m120 0 c0 -5 -22 -10 -50 -10 -27 0 -50 5 -50 10 0 6 23 10 50
10 28 0 50 -4 50 -10z m120 0 c0 -5 -22 -10 -50 -10 -27 0 -50 5 -50 10 0 6
23 10 50 10 28 0 50 -4 50 -10z m120 0 c0 -5 -22 -10 -50 -10 -27 0 -50 5 -50
10 0 6 23 10 50 10 28 0 50 -4 50 -10z m120 0 c0 -5 -22 -10 -50 -10 -27 0
-50 5 -50 10 0 6 23 10 50 10 28 0 50 -4 50 -10z m120 0 c0 -5 -22 -10 -50
-10 -27 0 -50 5 -50 10 0 6 23 10 50 10 28 0 50 -4 50 -10z m120 0 c0 -5 -22
-10 -50 -10 -27 0 -50 5 -50 10 0 6 23 10 50 10 28 0 50 -4 50 -10z m120 0 c0
-5 -22 -10 -50 -10 -27 0 -50 5 -50 10 0 6 23 10 50 10 28 0 50 -4 50 -10z
m120 0 c0 -5 -22 -10 -50 -10 -27 0 -50 5 -50 10 0 6 23 10 50 10 28 0 50 -4
50 -10z m120 0 c0 -5 -22 -10 -50 -10 -27 0 -50 5 -50 10 0 6 23 10 50 10 28
0 50 -4 50 -10z m120 0 c0 -5 -22 -10 -50 -10 -27 0 -50 5 -50 10 0 6 23 10
50 10 28 0 50 -4 50 -10z m120 0 c0 -5 -22 -10 -50 -10 -27 0 -50 5 -50 10 0
6 23 10 50 10 28 0 50 -4 50 -10z m120 0 c0 -5 -22 -10 -50 -10 -27 0 -50 5
-50 10 0 6 23 10 50 10 28 0 50 -4 50 -10z m120 0 c0 -5 -22 -10 -50 -10 -27
0 -50 5 -50 10 0 6 23 10 50 10 28 0 50 -4 50 -10z m120 0 c0 -5 -22 -10 -50
-10 -27 0 -50 5 -50 10 0 6 23 10 50 10 28 0 50 -4 50 -10z m120 0 c0 -5 -22
-10 -50 -10 -27 0 -50 5 -50 10 0 6 23 10 50 10 28 0 50 -4 50 -10z m120 0 c0
-5 -22 -10 -50 -10 -27 0 -50 5 -50 10 0 6 23 10 50 10 28 0 50 -4 50 -10z
m120 0 c0 -5 -22 -10 -50 -10 -27 0 -50 5 -50 10 0 6 23 10 50 10 28 0 50 -4
50 -10z m120 0 c0 -5 -22 -10 -50 -10 -27 0 -50 5 -50 10 0 6 23 10 50 10 28
0 50 -4 50 -10z m120 0 c0 -5 -22 -10 -50 -10 -27 0 -50 5 -50 10 0 6 23 10
50 10 28 0 50 -4 50 -10z m120 0 c0 -5 -22 -10 -50 -10 -27 0 -50 5 -50 10 0
6 23 10 50 10 28 0 50 -4 50 -10z m120 0 c0 -5 -22 -10 -50 -10 -27 0 -50 5
-50 10 0 6 23 10 50 10 28 0 50 -4 50 -10z m120 0 c0 -5 -22 -10 -50 -10 -27
0 -50 5 -50 10 0 6 23 10 50 10 28 0 50 -4 50 -10z m120 0 c0 -5 -22 -10 -50
-10 -27 0 -50 5 -50 10 0 6 23 10 50 10 28 0 50 -4 50 -10z m120 0 c0 -5 -22
-10 -50 -10 -27 0 -50 5 -50 10 0 6 23 10 50 10 28 0 50 -4 50 -10z m-2790
-171 c0 -5 -7 -9 -15 -9 -15 0 -20 12 -9 23 8 8 24 -1 24 -14z m620 -52 l0
-74 -32 -1 c-41 -1 -58 13 -58 48 0 33 22 54 50 47 17 -4 20 0 20 24 0 16 5
29 10 29 6 0 10 -31 10 -73z m720 0 l0 -74 -32 -1 c-41 -1 -58 13 -58 48 0 33
22 54 50 47 17 -4 20 0 20 24 0 16 5 29 10 29 6 0 10 -31 10 -73z m460 52 c0
-5 -7 -9 -15 -9 -15 0 -20 12 -9 23 8 8 24 -1 24 -14z m220 -44 c0 -58 2 -65
20 -65 11 0 20 -5 20 -11 0 -6 -12 -9 -27 -7 -27 3 -28 6 -31 66 -2 46 -7 62
-17 62 -8 0 -15 5 -15 10 0 6 11 10 25 10 24 0 25 -2 25 -65z m-2180 -5 l0
-60 35 0 c19 0 35 -4 35 -10 0 -5 -22 -10 -50 -10 l-50 0 0 70 c0 56 3 70 15
70 12 0 15 -13 15 -60z m1142 45 c-2 -5 -12 -9 -23 -7 -28 5 -49 -16 -49 -47
0 -35 17 -51 53 -51 16 0 26 -4 22 -10 -10 -16 -57 -12 -77 7 -23 21 -24 80
-1 105 18 20 81 22 75 3z m-772 -10 c0 -9 9 -15 25 -15 14 0 25 -4 25 -10 0
-5 -12 -10 -26 -10 -22 0 -25 -4 -22 -27 2 -20 9 -29 26 -31 29 -4 29 -22 -1
-22 -31 0 -47 18 -47 51 0 15 -6 30 -12 33 -10 5 -10 7 0 12 6 3 12 12 12 20
0 8 5 14 10 14 6 0 10 -7 10 -15z m-210 -55 c0 -29 4 -40 15 -40 8 0 15 -4 15
-10 0 -5 -23 -10 -51 -10 -31 0 -48 4 -44 10 3 6 13 10 21 10 9 0 14 11 14 30
0 20 -5 30 -15 30 -8 0 -15 5 -15 10 0 6 14 10 30 10 28 0 30 -2 30 -40z m140
30 c0 -5 -13 -10 -30 -10 -39 0 -39 -16 1 -24 25 -5 30 -10 27 -28 -2 -19 -10
-24 -40 -26 -22 -2 -38 1 -38 7 0 6 14 11 30 11 17 0 30 4 30 9 0 5 -13 11
-30 15 -29 5 -41 32 -23 49 10 11 73 8 73 -3z m224 -6 c9 -8 16 -24 16 -34 0
-10 3 -25 6 -33 5 -13 -3 -15 -43 -14 -42 2 -48 5 -51 25 -3 18 2 23 27 28 37
8 41 24 6 24 -14 0 -25 5 -25 10 0 16 47 12 64 -6z m363 8 c6 -4 13 -16 15
-27 2 -16 -3 -21 -29 -23 -41 -4 -43 -22 -3 -22 17 0 30 -4 30 -10 0 -16 -52
-11 -72 7 -22 20 -23 46 -2 67 16 17 42 20 61 8z m324 -4 c1 -7 0 -25 -1 -40
-1 -20 3 -28 14 -28 9 0 16 -4 16 -10 0 -5 -16 -10 -35 -10 -19 0 -35 5 -35
10 0 6 5 10 10 10 6 0 10 14 10 30 0 17 -4 30 -10 30 -5 0 -10 5 -10 10 0 15
40 12 41 -2z m56 -3 c3 -9 2 -19 -2 -23 -4 -4 -10 -1 -12 6 -3 6 -11 12 -19
12 -8 0 -14 5 -14 10 0 16 40 11 47 -5z m100 7 c6 -4 13 -16 15 -27 2 -16 -3
-21 -29 -23 -41 -4 -43 -22 -3 -22 17 0 30 -4 30 -10 0 -16 -52 -11 -72 7 -22
20 -23 46 -2 67 16 17 42 20 61 8z m240 0 c6 -4 13 -16 15 -27 2 -16 -3 -21
-29 -23 -41 -4 -43 -22 -3 -22 17 0 30 -4 30 -10 0 -16 -52 -11 -72 7 -22 20
-23 46 -2 67 16 17 42 20 61 8z m131 -44 c2 -29 -1 -48 -7 -48 -6 0 -11 18
-11 40 0 33 -3 40 -20 40 -17 0 -20 -7 -20 -40 0 -22 -4 -40 -10 -40 -5 0 -10
22 -10 49 l0 49 38 -1 c37 -2 37 -2 40 -49z m119 36 c2 -7 -8 -9 -28 -6 -29 4
-30 3 -27 -24 2 -23 9 -30 31 -32 35 -4 35 -22 0 -22 -30 0 -63 25 -63 48 0
40 76 71 87 36z m103 -24 c0 -29 4 -40 15 -40 8 0 15 -4 15 -10 0 -5 -23 -10
-51 -10 -31 0 -48 4 -44 10 3 6 13 10 21 10 9 0 14 11 14 30 0 20 -5 30 -15
30 -8 0 -15 5 -15 10 0 6 14 10 30 10 28 0 30 -2 30 -40z m124 24 c9 -8 16
-24 16 -34 0 -10 3 -25 6 -33 5 -13 -3 -15 -43 -14 -42 2 -48 5 -51 25 -3 18
2 23 27 28 37 8 41 24 6 24 -14 0 -25 5 -25 10 0 16 47 12 64 -6z m243 8 c6
-4 13 -16 15 -27 2 -16 -3 -21 -29 -23 -41 -4 -43 -22 -3 -22 17 0 30 -4 30
-10 0 -16 -52 -11 -72 7 -22 20 -23 46 -2 67 16 17 42 20 61 8z m133 -2 c0 -5
-13 -10 -30 -10 -39 0 -39 -16 1 -24 25 -5 30 -10 27 -28 -2 -19 -10 -24 -40
-26 -22 -2 -38 1 -38 7 0 6 14 11 30 11 17 0 30 4 30 9 0 5 -13 11 -30 15 -29
5 -41 32 -23 49 10 11 73 8 73 -3z m90 -5 c0 -8 -4 -15 -9 -15 -13 0 -22 16
-14 24 11 11 23 6 23 -9z m0 -70 c0 -8 -4 -15 -9 -15 -13 0 -22 16 -14 24 11
11 23 6 23 -9z m-930 -325 c0 -5 -9 -10 -20 -10 -18 0 -20 -7 -20 -70 0 -63 2
-70 20 -70 11 0 20 -4 20 -10 0 -5 -13 -10 -30 -10 l-30 0 0 90 0 90 30 0 c17
0 30 -4 30 -10z m5620 -80 l0 -90 -30 0 c-16 0 -30 5 -30 10 0 6 9 10 20 10
18 0 20 7 20 70 0 63 -2 70 -20 70 -11 0 -20 5 -20 10 0 6 14 10 30 10 l30 0
0 -90z m-6820 7 l0 -74 -32 -1 c-41 -1 -58 13 -58 48 0 33 22 54 50 47 17 -4
20 0 20 24 0 16 5 29 10 29 6 0 10 -31 10 -73z m460 52 c0 -5 -7 -9 -15 -9
-15 0 -20 12 -9 23 8 8 24 -1 24 -14z m220 -44 c0 -58 2 -65 20 -65 11 0 20
-5 20 -11 0 -6 -12 -9 -27 -7 -27 3 -28 6 -31 66 -2 46 -7 62 -17 62 -8 0 -15
5 -15 10 0 6 11 10 25 10 24 0 25 -2 25 -65z m940 36 c0 -25 3 -28 25 -24 32
7 53 -33 36 -66 -12 -22 -52 -37 -76 -27 -22 8 -22 146 0 146 10 0 15 -10 15
-29z m2440 8 c0 -5 -7 -9 -15 -9 -15 0 -20 12 -9 23 8 8 24 -1 24 -14z m2600
-24 c0 -35 4 -45 16 -45 9 0 18 9 21 20 6 22 23 28 23 8 0 -7 -4 -19 -9 -27
-6 -9 -4 -23 6 -38 12 -19 13 -23 2 -23 -8 0 -20 9 -27 20 -7 11 -17 20 -22
20 -6 0 -10 -9 -10 -20 0 -11 -7 -20 -15 -20 -12 0 -15 15 -15 75 0 60 3 75
15 75 11 0 15 -12 15 -45z m-7018 20 c-2 -5 -12 -9 -23 -7 -28 5 -49 -16 -49
-47 0 -35 17 -51 53 -51 16 0 26 -4 22 -10 -10 -16 -57 -12 -77 7 -23 21 -24
80 -1 105 18 20 81 22 75 3z m1639 -35 l18 -45 0 48 c1 26 6 47 11 47 6 0 10
-30 10 -70 0 -41 -4 -70 -10 -70 -6 0 -21 24 -34 53 l-24 52 -1 -52 c-1 -29
-5 -53 -11 -53 -6 0 -10 30 -10 71 0 60 2 70 16 67 9 -2 25 -23 35 -48z m1009
8 c0 -61 -19 -93 -54 -93 -29 0 -57 27 -42 42 4 4 12 0 17 -10 6 -9 19 -17 29
-17 17 0 20 7 20 50 0 38 -4 50 -15 50 -8 0 -15 5 -15 10 0 6 14 10 30 10 29
0 30 -2 30 -42z m712 27 c-2 -5 -12 -9 -23 -7 -28 5 -49 -16 -49 -47 0 -35 17
-51 53 -51 16 0 26 -4 22 -10 -10 -16 -57 -12 -77 7 -23 21 -24 80 -1 105 18
20 81 22 75 3z m830 -50 c21 -70 21 -75 8 -75 -5 0 -10 7 -10 15 0 10 -10 15
-30 15 -20 0 -30 -5 -30 -15 0 -8 -4 -15 -10 -15 -14 0 -13 11 7 81 21 77 40
75 65 -6z m1328 44 c9 -15 9 -28 0 -49 -9 -21 -9 -34 0 -49 8 -17 8 -21 -3
-21 -8 0 -19 11 -25 25 -6 14 -18 25 -27 25 -9 0 -15 -9 -15 -25 0 -14 -4 -25
-10 -25 -6 0 -10 30 -10 70 l0 70 40 0 c30 0 42 -5 50 -21z m588 9 c19 -19 14
-44 -14 -77 l-26 -31 26 0 c13 0 28 -4 31 -10 4 -6 -13 -10 -44 -10 -28 0 -51
3 -51 7 0 4 16 21 36 39 45 41 43 70 -4 67 -27 -1 -31 1 -21 13 14 17 51 18
67 2z m102 -48 c0 -47 3 -60 15 -60 8 0 15 -4 15 -10 0 -5 -18 -10 -40 -10
-22 0 -40 5 -40 10 0 6 7 10 15 10 11 0 15 12 15 50 0 40 -3 48 -15 44 -8 -4
-15 -2 -15 4 0 6 6 13 13 15 32 14 37 7 37 -53z m157 48 c-2 -7 -13 -39 -23
-70 -10 -32 -21 -58 -26 -58 -11 0 -10 12 7 60 20 56 19 60 -10 60 -16 0 -25
-6 -25 -15 0 -8 -4 -15 -10 -15 -5 0 -10 11 -10 25 0 23 3 25 51 25 37 0 50
-4 46 -12z m104 -4 c9 -11 10 -20 2 -32 -7 -12 -7 -22 1 -35 16 -25 -4 -51
-43 -55 -17 -2 -31 1 -31 7 0 6 14 11 30 11 36 0 42 29 9 37 l-22 6 23 17 c28
21 18 44 -16 36 -23 -6 -32 3 -17 17 12 13 50 7 64 -9z m99 -44 c0 -47 3 -60
15 -60 8 0 15 -4 15 -10 0 -5 -18 -10 -40 -10 -22 0 -40 5 -40 10 0 6 7 10 15
10 11 0 15 12 15 50 0 40 -3 48 -15 44 -8 -4 -15 -2 -15 4 0 6 6 13 13 15 32
14 37 7 37 -53z m141 44 c9 -11 10 -20 2 -32 -7 -12 -7 -22 1 -35 16 -25 -4
-51 -43 -55 -17 -2 -31 1 -31 7 0 6 14 11 30 11 36 0 42 29 9 37 l-22 6 23 17
c28 21 18 44 -16 36 -23 -6 -32 3 -17 17 12 13 50 7 64 -9z m120 0 c9 -11 10
-20 2 -32 -7 -12 -7 -22 1 -35 16 -25 -4 -51 -43 -55 -17 -2 -31 1 -31 7 0 6
14 11 30 11 36 0 42 29 9 37 l-22 6 23 17 c28 21 18 44 -16 36 -23 -6 -32 3
-17 17 12 13 50 7 64 -9z m126 10 c-4 -4 -16 -12 -29 -18 -30 -15 -35 -36 -7
-29 22 6 49 -17 49 -43 0 -20 -30 -44 -55 -44 -50 0 -58 92 -12 125 21 14 67
22 54 9z m-2327 -19 c0 -9 9 -15 25 -15 14 0 25 -4 25 -10 0 -5 -12 -10 -26
-10 -22 0 -25 -4 -22 -27 2 -20 9 -29 26 -31 29 -4 29 -22 -1 -22 -31 0 -47
18 -47 51 0 15 -6 30 -12 33 -10 5 -10 7 0 12 6 3 12 12 12 20 0 8 5 14 10 14
6 0 10 -7 10 -15z m360 0 c0 -9 9 -15 25 -15 14 0 25 -4 25 -10 0 -5 -12 -10
-26 -10 -22 0 -25 -4 -22 -27 2 -20 9 -29 26 -31 29 -4 29 -22 -1 -22 -31 0
-47 18 -47 51 0 15 -6 30 -12 33 -10 5 -10 7 0 12 6 3 12 12 12 20 0 8 5 14
10 14 6 0 10 -7 10 -15z m720 0 c0 -9 9 -15 25 -15 14 0 25 -4 25 -10 0 -5
-12 -10 -26 -10 -22 0 -25 -4 -22 -27 2 -20 9 -29 26 -31 29 -4 29 -22 -1 -22
-31 0 -47 18 -47 51 0 15 -6 30 -12 33 -10 5 -10 7 0 12 6 3 12 12 12 20 0 8
5 14 10 14 6 0 10 -7 10 -15z m-5639 -27 c1 -7 0 -25 -1 -40 -1 -20 3 -28 14
-28 9 0 16 -4 16 -10 0 -5 -16 -10 -35 -10 -19 0 -35 5 -35 10 0 6 5 10 10 10
6 0 10 14 10 30 0 17 -4 30 -10 30 -5 0 -10 5 -10 10 0 15 40 12 41 -2z m56
-3 c3 -9 2 -19 -2 -23 -4 -4 -10 -1 -12 6 -3 6 -11 12 -19 12 -8 0 -14 5 -14
10 0 16 40 11 47 -5z m100 7 c6 -4 13 -16 15 -27 2 -16 -3 -21 -29 -23 -41 -4
-43 -22 -3 -22 17 0 30 -4 30 -10 0 -16 -52 -11 -72 7 -22 20 -23 46 -2 67 16
17 42 20 61 8z m240 0 c6 -4 13 -16 15 -27 2 -16 -3 -21 -29 -23 -41 -4 -43
-22 -3 -22 17 0 30 -4 30 -10 0 -16 -52 -11 -72 7 -22 20 -23 46 -2 67 16 17
42 20 61 8z m131 -44 c2 -29 -1 -48 -7 -48 -6 0 -11 18 -11 40 0 33 -3 40 -20
40 -17 0 -20 -7 -20 -40 0 -22 -4 -40 -10 -40 -5 0 -10 22 -10 49 l0 49 38 -1
c37 -2 37 -2 40 -49z m119 36 c2 -7 -8 -9 -28 -6 -29 4 -30 3 -27 -24 2 -23 9
-30 31 -32 35 -4 35 -22 0 -22 -30 0 -63 25 -63 48 0 40 76 71 87 36z m103
-24 c0 -29 4 -40 15 -40 8 0 15 -4 15 -10 0 -5 -23 -10 -51 -10 -31 0 -48 4
-44 10 3 6 13 10 21 10 9 0 14 11 14 30 0 20 -5 30 -15 30 -8 0 -15 5 -15 10
0 6 14 10 30 10 28 0 30 -2 30 -40z m124 24 c9 -8 16 -24 16 -34 0 -10 3 -25
6 -33 5 -13 -3 -15 -43 -14 -42 2 -48 5 -51 25 -3 18 2 23 27 28 37 8 41 24 6
24 -14 0 -25 5 -25 10 0 16 47 12 64 -6z m243 8 c6 -4 13 -16 15 -27 2 -16 -3
-21 -29 -23 -41 -4 -43 -22 -3 -22 17 0 30 -4 30 -10 0 -16 -52 -11 -72 7 -22
20 -23 46 -2 67 16 17 42 20 61 8z m133 -2 c0 -5 -13 -10 -30 -10 -39 0 -39
-16 1 -24 25 -5 30 -10 27 -28 -2 -19 -10 -24 -40 -26 -22 -2 -38 1 -38 7 0 6
14 11 30 11 17 0 30 4 30 9 0 5 -13 11 -30 15 -29 5 -41 32 -23 49 10 11 73 8
73 -3z m468 -2 c7 -7 12 -24 12 -38 0 -52 -61 -71 -82 -25 -23 51 32 101 70
63z m140 -40 c2 -38 0 -48 -12 -48 -12 0 -16 11 -18 43 l-1 42 -4 -42 c-5 -54
-23 -56 -23 -3 0 22 -4 40 -10 40 -5 0 -10 -18 -10 -40 0 -22 -4 -40 -10 -40
-5 0 -10 22 -10 49 l0 48 48 -1 47 -1 3 -47z m183 40 c1 -7 0 -25 -1 -40 -1
-20 3 -28 14 -28 9 0 16 -4 16 -10 0 -5 -16 -10 -35 -10 -19 0 -35 5 -35 10 0
6 5 10 10 10 6 0 10 14 10 30 0 17 -4 30 -10 30 -5 0 -10 5 -10 10 0 15 40 12
41 -2z m56 -3 c3 -9 2 -19 -2 -23 -4 -4 -10 -1 -12 6 -3 6 -11 12 -19 12 -8 0
-14 5 -14 10 0 16 40 11 47 -5z m100 7 c6 -4 13 -16 15 -27 2 -16 -3 -21 -29
-23 -41 -4 -43 -22 -3 -22 17 0 30 -4 30 -10 0 -16 -52 -11 -72 7 -22 20 -23
46 -2 67 16 17 42 20 61 8z m103 -7 c0 -8 -4 -15 -9 -15 -13 0 -22 16 -14 24
11 11 23 6 23 -9z m378 3 c7 -7 12 -24 12 -38 0 -52 -61 -71 -82 -25 -23 51
32 101 70 63z m132 2 c0 -5 -13 -10 -30 -10 -39 0 -39 -16 1 -24 25 -5 30 -10
27 -28 -2 -19 -10 -24 -40 -26 -22 -2 -38 1 -38 7 0 6 14 11 30 11 17 0 30 4
30 9 0 5 -13 11 -30 15 -29 5 -41 32 -23 49 10 11 73 8 73 -3z m107 2 c6 -4
13 -16 15 -27 2 -16 -3 -21 -29 -23 -41 -4 -43 -22 -3 -22 17 0 30 -4 30 -10
0 -16 -52 -11 -72 7 -22 20 -23 46 -2 67 16 17 42 20 61 8z m477 -8 c9 -8 16
-24 16 -34 0 -10 3 -25 6 -33 5 -13 -3 -15 -43 -14 -42 2 -48 5 -51 25 -3 18
2 23 27 28 37 8 41 24 6 24 -14 0 -25 5 -25 10 0 16 47 12 64 -6z m87 4 c1 -7
0 -25 -1 -40 -1 -20 3 -28 14 -28 9 0 16 -4 16 -10 0 -5 -16 -10 -35 -10 -19
0 -35 5 -35 10 0 6 5 10 10 10 6 0 10 14 10 30 0 17 -4 30 -10 30 -5 0 -10 5
-10 10 0 15 40 12 41 -2z m56 -3 c3 -9 2 -19 -2 -23 -4 -4 -10 -1 -12 6 -3 6
-11 12 -19 12 -8 0 -14 5 -14 10 0 16 40 11 47 -5z m113 -46 c0 -62 -13 -79
-59 -79 -31 0 -26 18 6 22 14 2 28 8 30 15 3 7 -3 9 -16 6 -28 -7 -51 14 -51
46 0 36 17 51 57 49 l33 -1 0 -58z m108 49 c7 -7 12 -24 12 -38 0 -52 -61 -71
-82 -25 -23 51 32 101 70 63z m102 -3 c0 -8 -4 -15 -9 -15 -13 0 -22 16 -14
24 11 11 23 6 23 -9z m390 5 c0 -5 -13 -10 -30 -10 -39 0 -39 -16 1 -24 25 -5
30 -10 27 -28 -2 -19 -10 -24 -40 -26 -22 -2 -38 1 -38 7 0 6 14 11 30 11 17
0 30 4 30 9 0 5 -13 11 -30 15 -29 5 -41 32 -23 49 10 11 73 8 73 -3z m100
-30 c0 -29 4 -40 15 -40 8 0 15 -4 15 -10 0 -5 -23 -10 -51 -10 -31 0 -48 4
-44 10 3 6 13 10 21 10 9 0 14 11 14 30 0 20 -5 30 -15 30 -8 0 -15 5 -15 10
0 6 14 10 30 10 28 0 30 -2 30 -40z m140 30 c0 -5 -13 -10 -30 -10 -39 0 -39
-16 1 -24 25 -5 30 -10 27 -28 -2 -19 -10 -24 -40 -26 -22 -2 -38 1 -38 7 0 6
14 11 30 11 17 0 30 4 30 9 0 5 -13 11 -30 15 -29 5 -41 32 -23 49 10 11 73 8
73 -3z m227 2 c6 -4 13 -16 15 -27 2 -16 -3 -21 -29 -23 -41 -4 -43 -22 -3
-22 17 0 30 -4 30 -10 0 -16 -52 -11 -72 7 -22 20 -23 46 -2 67 16 17 42 20
61 8z m131 -44 c2 -29 -1 -48 -7 -48 -6 0 -11 18 -11 40 0 33 -3 40 -20 40
-17 0 -20 -7 -20 -40 0 -22 -4 -40 -10 -40 -5 0 -10 22 -10 49 l0 49 38 -1
c37 -2 37 -2 40 -49z m229 44 c6 -4 13 -16 15 -27 2 -16 -3 -21 -29 -23 -41
-4 -43 -22 -3 -22 17 0 30 -4 30 -10 0 -16 -52 -11 -72 7 -22 20 -23 46 -2 67
16 17 42 20 61 8z m433 -33 c0 -33 3 -40 18 -37 12 2 18 14 20 41 4 46 22 49
22 3 0 -19 3 -41 6 -49 4 -12 -3 -15 -33 -15 -21 0 -44 5 -50 10 -19 15 -17
88 2 88 11 0 15 -11 15 -41z m270 26 c0 -8 -4 -15 -9 -15 -13 0 -22 16 -14 24
11 11 23 6 23 -9z m-3480 -70 c0 -8 -4 -15 -9 -15 -13 0 -22 16 -14 24 11 11
23 6 23 -9z m1560 0 c0 -8 -4 -15 -9 -15 -13 0 -22 16 -14 24 11 11 23 6 23
-9z m1920 0 c0 -8 -4 -15 -9 -15 -13 0 -22 16 -14 24 11 11 23 6 23 -9z
m-2760 -7 c0 -25 -12 -58 -21 -58 -10 0 -12 31 -3 54 7 19 24 21 24 4z m2160
0 c0 -25 -12 -58 -21 -58 -10 0 -12 31 -3 54 7 19 24 21 24 4z m-3690 -88 c0
-5 -9 -10 -20 -10 -18 0 -20 -7 -20 -70 0 -63 2 -70 20 -70 11 0 20 -4 20 -10
0 -5 -13 -10 -30 -10 l-30 0 0 90 0 90 30 0 c17 0 30 -4 30 -10z m5980 -80 l0
-90 -30 0 c-16 0 -30 5 -30 10 0 6 9 10 20 10 18 0 20 7 20 70 0 63 -2 70 -20
70 -11 0 -20 5 -20 10 0 6 14 10 30 10 l30 0 0 -90z m-7180 7 l0 -74 -32 -1
c-41 -1 -58 13 -58 48 0 33 22 54 50 47 17 -4 20 0 20 24 0 16 5 29 10 29 6 0
10 -31 10 -73z m460 52 c0 -5 -7 -9 -15 -9 -15 0 -20 12 -9 23 8 8 24 -1 24
-14z m220 -44 c0 -58 2 -65 20 -65 11 0 20 -5 20 -11 0 -6 -12 -9 -27 -7 -27
3 -28 6 -31 66 -2 46 -7 62 -17 62 -8 0 -15 5 -15 10 0 6 11 10 25 10 24 0 25
-2 25 -65z m940 36 c0 -25 3 -28 25 -24 32 7 53 -33 36 -66 -12 -22 -52 -37
-76 -27 -22 8 -22 146 0 146 10 0 15 -10 15 -29z m760 8 c0 -5 -7 -9 -15 -9
-15 0 -20 12 -9 23 8 8 24 -1 24 -14z m720 0 c0 -5 -7 -9 -15 -9 -15 0 -20 12
-9 23 8 8 24 -1 24 -14z m-3458 -4 c-2 -5 -12 -9 -23 -7 -28 5 -49 -16 -49
-47 0 -35 17 -51 53 -51 16 0 26 -4 22 -10 -10 -16 -57 -12 -77 7 -23 21 -24
80 -1 105 18 20 81 22 75 3z m1639 -35 l18 -45 0 48 c1 26 6 47 11 47 6 0 10
-30 10 -70 0 -41 -4 -70 -10 -70 -6 0 -21 24 -34 53 l-24 52 -1 -52 c-1 -29
-5 -53 -11 -53 -6 0 -10 30 -10 71 0 60 2 70 16 67 9 -2 25 -23 35 -48z m1001
35 c-2 -5 -15 -8 -29 -7 -14 2 -30 -2 -34 -10 -13 -19 -11 -62 3 -76 17 -17
48 -15 48 3 0 8 -7 15 -15 15 -8 0 -15 5 -15 10 0 6 12 10 26 10 23 0 25 -3
22 -32 -3 -29 -7 -33 -34 -36 -41 -4 -64 20 -64 65 0 48 25 75 64 71 17 -2 30
-7 28 -13z m1200 0 c-2 -5 -12 -9 -23 -7 -28 5 -49 -16 -49 -47 0 -35 17 -51
53 -51 16 0 26 -4 22 -10 -10 -16 -57 -12 -77 7 -23 21 -24 80 -1 105 18 20
81 22 75 3z m840 0 c-2 -5 -12 -9 -23 -7 -28 5 -49 -16 -49 -47 0 -35 17 -51
53 -51 16 0 26 -4 22 -10 -10 -16 -57 -12 -77 7 -23 21 -24 80 -1 105 18 20
81 22 75 3z m1198 -6 c9 -15 9 -28 0 -49 -9 -21 -9 -34 0 -49 8 -17 8 -21 -3
-21 -8 0 -19 11 -25 25 -6 14 -18 25 -27 25 -9 0 -15 -9 -15 -25 0 -14 -4 -25
-10 -25 -6 0 -10 30 -10 70 l0 70 40 0 c30 0 42 -5 50 -21z m570 -39 c0 -47 3
-60 15 -60 8 0 15 -4 15 -10 0 -5 -18 -10 -40 -10 -22 0 -40 5 -40 10 0 6 7
10 15 10 11 0 15 12 15 50 0 40 -3 48 -15 44 -8 -4 -15 -2 -15 4 0 6 6 13 13
15 32 14 37 7 37 -53z m120 0 c0 -47 3 -60 15 -60 8 0 15 -4 15 -10 0 -5 -18
-10 -40 -10 -22 0 -40 5 -40 10 0 6 7 10 15 10 11 0 15 12 15 50 0 40 -3 48
-15 44 -8 -4 -15 -2 -15 4 0 6 6 13 13 15 32 14 37 7 37 -53z m138 48 c19 -19
14 -44 -14 -77 l-26 -31 26 0 c13 0 28 -4 31 -10 4 -6 -13 -10 -44 -10 -28 0
-51 3 -51 7 0 4 16 21 36 39 45 41 43 70 -4 67 -27 -1 -31 1 -21 13 14 17 51
18 67 2z m120 0 c19 -19 14 -44 -14 -77 l-26 -31 26 0 c13 0 28 -4 31 -10 4
-6 -13 -10 -44 -10 -28 0 -51 3 -51 7 0 4 16 21 36 39 45 41 43 70 -4 67 -27
-1 -31 1 -21 13 14 17 51 18 67 2z m120 0 c19 -19 14 -44 -14 -77 l-26 -31 26
0 c13 0 28 -4 31 -10 4 -6 -13 -10 -44 -10 -28 0 -51 3 -51 7 0 4 16 21 36 39
45 41 43 70 -4 67 -27 -1 -31 1 -21 13 14 17 51 18 67 2z m123 -4 c9 -11 10
-20 2 -32 -7 -12 -7 -22 1 -35 16 -25 -4 -51 -43 -55 -17 -2 -31 1 -31 7 0 6
14 11 30 11 36 0 42 29 9 37 l-22 6 23 17 c28 21 18 44 -16 36 -23 -6 -32 3
-17 17 12 13 50 7 64 -9z m120 0 c9 -11 10 -20 2 -32 -7 -12 -7 -22 1 -35 16
-25 -4 -51 -43 -55 -17 -2 -31 1 -31 7 0 6 14 11 30 11 36 0 42 29 9 37 l-22
6 23 17 c28 21 18 44 -16 36 -23 -6 -32 3 -17 17 12 13 50 7 64 -9z m120 0 c9
-11 10 -20 2 -32 -7 -12 -7 -22 1 -35 16 -25 -4 -51 -43 -55 -17 -2 -31 1 -31
7 0 6 14 11 30 11 36 0 42 29 9 37 l-22 6 23 17 c28 21 18 44 -16 36 -23 -6
-32 3 -17 17 12 13 50 7 64 -9z m131 -36 c2 -29 2 -61 0 -70 -5 -22 -22 -24
-22 -3 0 11 -11 15 -36 15 -36 0 -36 1 -30 31 3 17 6 40 6 50 0 11 7 19 15 19
8 0 13 -6 11 -12 -18 -58 -17 -68 9 -68 23 0 25 4 25 45 0 62 17 57 22 -7z
m-2452 27 c0 -9 9 -15 25 -15 14 0 25 -4 25 -10 0 -5 -12 -10 -26 -10 -22 0
-25 -4 -22 -27 2 -20 9 -29 26 -31 29 -4 29 -22 -1 -22 -31 0 -47 18 -47 51 0
15 -6 30 -12 33 -10 5 -10 7 0 12 6 3 12 12 12 20 0 8 5 14 10 14 6 0 10 -7
10 -15z m360 0 c0 -9 9 -15 25 -15 14 0 25 -4 25 -10 0 -5 -12 -10 -26 -10
-22 0 -25 -4 -22 -27 2 -20 9 -29 26 -31 29 -4 29 -22 -1 -22 -31 0 -47 18
-47 51 0 15 -6 30 -12 33 -10 5 -10 7 0 12 6 3 12 12 12 20 0 8 5 14 10 14 6
0 10 -7 10 -15z m720 0 c0 -9 9 -15 25 -15 14 0 25 -4 25 -10 0 -5 -12 -10
-26 -10 -22 0 -25 -4 -22 -27 2 -20 9 -29 26 -31 29 -4 29 -22 -1 -22 -31 0
-47 18 -47 51 0 15 -6 30 -12 33 -10 5 -10 7 0 12 6 3 12 12 12 20 0 8 5 14
10 14 6 0 10 -7 10 -15z m-5999 -27 c1 -7 0 -25 -1 -40 -1 -20 3 -28 14 -28 9
0 16 -4 16 -10 0 -5 -16 -10 -35 -10 -19 0 -35 5 -35 10 0 6 5 10 10 10 6 0
10 14 10 30 0 17 -4 30 -10 30 -5 0 -10 5 -10 10 0 15 40 12 41 -2z m56 -3 c3
-9 2 -19 -2 -23 -4 -4 -10 -1 -12 6 -3 6 -11 12 -19 12 -8 0 -14 5 -14 10 0
16 40 11 47 -5z m100 7 c6 -4 13 -16 15 -27 2 -16 -3 -21 -29 -23 -41 -4 -43
-22 -3 -22 17 0 30 -4 30 -10 0 -16 -52 -11 -72 7 -22 20 -23 46 -2 67 16 17
42 20 61 8z m240 0 c6 -4 13 -16 15 -27 2 -16 -3 -21 -29 -23 -41 -4 -43 -22
-3 -22 17 0 30 -4 30 -10 0 -16 -52 -11 -72 7 -22 20 -23 46 -2 67 16 17 42
20 61 8z m131 -44 c2 -29 -1 -48 -7 -48 -6 0 -11 18 -11 40 0 33 -3 40 -20 40
-17 0 -20 -7 -20 -40 0 -22 -4 -40 -10 -40 -5 0 -10 22 -10 49 l0 49 38 -1
c37 -2 37 -2 40 -49z m119 36 c2 -7 -8 -9 -28 -6 -29 4 -30 3 -27 -24 2 -23 9
-30 31 -32 35 -4 35 -22 0 -22 -30 0 -63 25 -63 48 0 40 76 71 87 36z m103
-24 c0 -29 4 -40 15 -40 8 0 15 -4 15 -10 0 -5 -23 -10 -51 -10 -31 0 -48 4
-44 10 3 6 13 10 21 10 9 0 14 11 14 30 0 20 -5 30 -15 30 -8 0 -15 5 -15 10
0 6 14 10 30 10 28 0 30 -2 30 -40z m124 24 c9 -8 16 -24 16 -34 0 -10 3 -25
6 -33 5 -13 -3 -15 -43 -14 -42 2 -48 5 -51 25 -3 18 2 23 27 28 37 8 41 24 6
24 -14 0 -25 5 -25 10 0 16 47 12 64 -6z m243 8 c6 -4 13 -16 15 -27 2 -16 -3
-21 -29 -23 -41 -4 -43 -22 -3 -22 17 0 30 -4 30 -10 0 -16 -52 -11 -72 7 -22
20 -23 46 -2 67 16 17 42 20 61 8z m133 -2 c0 -5 -13 -10 -30 -10 -39 0 -39
-16 1 -24 25 -5 30 -10 27 -28 -2 -19 -10 -24 -40 -26 -22 -2 -38 1 -38 7 0 6
14 11 30 11 17 0 30 4 30 9 0 5 -13 11 -30 15 -29 5 -41 32 -23 49 10 11 73 8
73 -3z m468 -2 c7 -7 12 -24 12 -38 0 -52 -61 -71 -82 -25 -23 51 32 101 70
63z m140 -40 c2 -38 0 -48 -12 -48 -12 0 -16 11 -18 43 l-1 42 -4 -42 c-5 -54
-23 -56 -23 -3 0 22 -4 40 -10 40 -5 0 -10 -18 -10 -40 0 -22 -4 -40 -10 -40
-5 0 -10 22 -10 49 l0 48 48 -1 47 -1 3 -47z m183 40 c1 -7 0 -25 -1 -40 -1
-20 3 -28 14 -28 9 0 16 -4 16 -10 0 -5 -16 -10 -35 -10 -19 0 -35 5 -35 10 0
6 5 10 10 10 6 0 10 14 10 30 0 17 -4 30 -10 30 -5 0 -10 5 -10 10 0 15 40 12
41 -2z m56 -3 c3 -9 2 -19 -2 -23 -4 -4 -10 -1 -12 6 -3 6 -11 12 -19 12 -8 0
-14 5 -14 10 0 16 40 11 47 -5z m100 7 c6 -4 13 -16 15 -27 2 -16 -3 -21 -29
-23 -41 -4 -43 -22 -3 -22 17 0 30 -4 30 -10 0 -16 -52 -11 -72 7 -22 20 -23
46 -2 67 16 17 42 20 61 8z m103 -7 c0 -8 -4 -15 -9 -15 -13 0 -22 16 -14 24
11 11 23 6 23 -9z m370 -25 c0 -29 4 -40 15 -40 8 0 15 -4 15 -10 0 -5 -23
-10 -51 -10 -31 0 -48 4 -44 10 3 6 13 10 21 10 9 0 14 11 14 30 0 20 -5 30
-15 30 -8 0 -15 5 -15 10 0 6 14 10 30 10 28 0 30 -2 30 -40z m128 28 c7 -7
12 -24 12 -38 0 -52 -61 -71 -82 -25 -23 51 32 101 70 63z m73 -23 c16 -43 24
-44 35 -3 5 17 15 33 22 36 9 3 7 -10 -6 -45 -22 -60 -43 -66 -61 -16 -8 21
-16 44 -18 51 -3 6 0 12 5 12 6 0 16 -16 23 -35z m163 19 c9 -8 16 -24 16 -34
0 -10 3 -25 6 -33 5 -13 -3 -15 -43 -14 -42 2 -48 5 -51 25 -3 18 2 23 27 28
37 8 41 24 6 24 -14 0 -25 5 -25 10 0 16 47 12 64 -6z m134 -36 c2 -29 -1 -48
-7 -48 -6 0 -11 18 -11 40 0 33 -3 40 -20 40 -17 0 -20 -7 -20 -40 0 -22 -4
-40 -10 -40 -5 0 -10 22 -10 49 l0 49 38 -1 c37 -2 37 -2 40 -49z m120 0 c2
-29 -1 -48 -7 -48 -6 0 -11 18 -11 40 0 33 -3 40 -20 40 -17 0 -20 -7 -20 -40
0 -22 -4 -40 -10 -40 -5 0 -10 22 -10 49 l0 49 38 -1 c37 -2 37 -2 40 -49z
m102 12 c0 -29 4 -40 15 -40 8 0 15 -4 15 -10 0 -5 -23 -10 -51 -10 -31 0 -48
4 -44 10 3 6 13 10 21 10 9 0 14 11 14 30 0 20 -5 30 -15 30 -8 0 -15 5 -15
10 0 6 14 10 30 10 28 0 30 -2 30 -40z m484 24 c9 -8 16 -24 16 -34 0 -10 3
-25 6 -33 5 -13 -3 -15 -43 -14 -42 2 -48 5 -51 25 -3 18 2 23 27 28 37 8 41
24 6 24 -14 0 -25 5 -25 10 0 16 47 12 64 -6z m87 4 c1 -7 0 -25 -1 -40 -1
-20 3 -28 14 -28 9 0 16 -4 16 -10 0 -5 -16 -10 -35 -10 -19 0 -35 5 -35 10 0
6 5 10 10 10 6 0 10 14 10 30 0 17 -4 30 -10 30 -5 0 -10 5 -10 10 0 15 40 12
41 -2z m56 -3 c3 -9 2 -19 -2 -23 -4 -4 -10 -1 -12 6 -3 6 -11 12 -19 12 -8 0
-14 5 -14 10 0 16 40 11 47 -5z m113 -46 c0 -62 -13 -79 -59 -79 -31 0 -26 18
6 22 14 2 28 8 30 15 3 7 -3 9 -16 6 -28 -7 -51 14 -51 46 0 36 17 51 57 49
l33 -1 0 -58z m108 49 c7 -7 12 -24 12 -38 0 -52 -61 -71 -82 -25 -23 51 32
101 70 63z m102 -3 c0 -8 -4 -15 -9 -15 -13 0 -22 16 -14 24 11 11 23 6 23 -9z
m374 -1 c9 -8 16 -24 16 -34 0 -10 3 -25 6 -33 5 -13 -3 -15 -43 -14 -42 2
-48 5 -51 25 -3 18 2 23 27 28 37 8 41 24 6 24 -14 0 -25 5 -25 10 0 16 47 12
64 -6z m134 -36 c2 -29 -1 -48 -7 -48 -6 0 -11 18 -11 40 0 33 -3 40 -20 40
-17 0 -20 -7 -20 -40 0 -22 -4 -40 -10 -40 -5 0 -10 22 -10 49 l0 49 38 -1
c37 -2 37 -2 40 -49z m226 36 c9 -8 16 -24 16 -34 0 -10 3 -25 6 -33 5 -13 -3
-15 -43 -14 -42 2 -48 5 -51 25 -3 18 2 23 27 28 37 8 41 24 6 24 -14 0 -25 5
-25 10 0 16 47 12 64 -6z m134 -36 c2 -29 -1 -48 -7 -48 -6 0 -11 18 -11 40 0
33 -3 40 -20 40 -17 0 -20 -7 -20 -40 0 -22 -4 -40 -10 -40 -5 0 -10 22 -10
49 l0 49 38 -1 c37 -2 37 -2 40 -49z m229 44 c6 -4 13 -16 15 -27 2 -16 -3
-21 -29 -23 -41 -4 -43 -22 -3 -22 17 0 30 -4 30 -10 0 -16 -52 -11 -72 7 -22
20 -23 46 -2 67 16 17 42 20 61 8z m433 -33 c0 -33 3 -40 18 -37 12 2 18 14
20 41 4 46 22 49 22 3 0 -19 3 -41 6 -49 4 -12 -3 -15 -33 -15 -21 0 -44 5
-50 10 -19 15 -17 88 2 88 11 0 15 -11 15 -41z m270 26 c0 -8 -4 -15 -9 -15
-13 0 -22 16 -14 24 11 11 23 6 23 -9z m-3840 -70 c0 -8 -4 -15 -9 -15 -13 0
-22 16 -14 24 11 11 23 6 23 -9z m2040 0 c0 -8 -4 -15 -9 -15 -13 0 -22 16
-14 24 11 11 23 6 23 -9z m1800 0 c0 -8 -4 -15 -9 -15 -13 0 -22 16 -14 24 11
11 23 6 23 -9z m-2640 -7 c0 -25 -12 -58 -21 -58 -10 0 -12 31 -3 54 7 19 24
21 24 4z m2040 0 c0 -25 -12 -58 -21 -58 -10 0 -12 31 -3 54 7 19 24 21 24 4z
m-5600 -168 c0 -5 -22 -10 -50 -10 -27 0 -50 5 -50 10 0 6 23 10 50 10 28 0
50 -4 50 -10z m120 0 c0 -5 -22 -10 -50 -10 -27 0 -50 5 -50 10 0 6 23 10 50
10 28 0 50 -4 50 -10z m120 0 c0 -5 -22 -10 -50 -10 -27 0 -50 5 -50 10 0 6
23 10 50 10 28 0 50 -4 50 -10z m120 0 c0 -5 -22 -10 -50 -10 -27 0 -50 5 -50
10 0 6 23 10 50 10 28 0 50 -4 50 -10z m120 0 c0 -5 -22 -10 -50 -10 -27 0
-50 5 -50 10 0 6 23 10 50 10 28 0 50 -4 50 -10z m120 0 c0 -5 -22 -10 -50
-10 -27 0 -50 5 -50 10 0 6 23 10 50 10 28 0 50 -4 50 -10z m120 0 c0 -5 -22
-10 -50 -10 -27 0 -50 5 -50 10 0 6 23 10 50 10 28 0 50 -4 50 -10z m120 0 c0
-5 -22 -10 -50 -10 -27 0 -50 5 -50 10 0 6 23 10 50 10 28 0 50 -4 50 -10z
m120 0 c0 -5 -22 -10 -50 -10 -27 0 -50 5 -50 10 0 6 23 10 50 10 28 0 50 -4
50 -10z m120 0 c0 -5 -22 -10 -50 -10 -27 0 -50 5 -50 10 0 6 23 10 50 10 28
0 50 -4 50 -10z m120 0 c0 -5 -22 -10 -50 -10 -27 0 -50 5 -50 10 0 6 23 10
50 10 28 0 50 -4 50 -10z m120 0 c0 -5 -22 -10 -50 -10 -27 0 -50 5 -50 10 0
6 23 10 50 10 28 0 50 -4 50 -10z m120 0 c0 -5 -22 -10 -50 -10 -27 0 -50 5
-50 10 0 6 23 10 50 10 28 0 50 -4 50 -10z m120 0 c0 -5 -22 -10 -50 -10 -27
0 -50 5 -50 10 0 6 23 10 50 10 28 0 50 -4 50 -10z m120 0 c0 -5 -22 -10 -50
-10 -27 0 -50 5 -50 10 0 6 23 10 50 10 28 0 50 -4 50 -10z m120 0 c0 -5 -22
-10 -50 -10 -27 0 -50 5 -50 10 0 6 23 10 50 10 28 0 50 -4 50 -10z m120 0 c0
-5 -22 -10 -50 -10 -27 0 -50 5 -50 10 0 6 23 10 50 10 28 0 50 -4 50 -10z
m120 0 c0 -5 -22 -10 -50 -10 -27 0 -50 5 -50 10 0 6 23 10 50 10 28 0 50 -4
50 -10z m120 0 c0 -5 -22 -10 -50 -10 -27 0 -50 5 -50 10 0 6 23 10 50 10 28
0 50 -4 50 -10z m120 0 c0 -5 -22 -10 -50 -10 -27 0 -50 5 -50 10 0 6 23 10
50 10 28 0 50 -4 50 -10z m120 0 c0 -5 -22 -10 -50 -10 -27 0 -50 5 -50 10 0
6 23 10 50 10 28 0 50 -4 50 -10z m120 0 c0 -5 -22 -10 -50 -10 -27 0 -50 5
-50 10 0 6 23 10 50 10 28 0 50 -4 50 -10z m120 0 c0 -5 -22 -10 -50 -10 -27
0 -50 5 -50 10 0 6 23 10 50 10 28 0 50 -4 50 -10z m120 0 c0 -5 -22 -10 -50
-10 -27 0 -50 5 -50 10 0 6 23 10 50 10 28 0 50 -4 50 -10z m120 0 c0 -5 -22
-10 -50 -10 -27 0 -50 5 -50 10 0 6 23 10 50 10 28 0 50 -4 50 -10z m-2290
-223 l0 -74 -32 -1 c-41 -1 -58 13 -58 48 0 33 22 54 50 47 17 -4 20 0 20 24
0 16 5 29 10 29 6 0 10 -31 10 -73z m1180 52 c0 -5 -7 -9 -15 -9 -15 0 -20 12
-9 23 8 8 24 -1 24 -14z m500 -52 l0 -74 -32 -1 c-41 -1 -58 13 -58 48 0 33
22 54 50 47 17 -4 20 0 20 24 0 16 5 29 10 29 6 0 10 -31 10 -73z m720 0 l0
-74 -32 -1 c-41 -1 -58 13 -58 48 0 33 22 54 50 47 17 -4 20 0 20 24 0 16 5
29 10 29 6 0 10 -31 10 -73z m460 52 c0 -5 -7 -9 -15 -9 -15 0 -20 12 -9 23 8
8 24 -1 24 -14z m220 -44 c0 -58 2 -65 20 -65 11 0 20 -5 20 -11 0 -6 -12 -9
-27 -7 -27 3 -28 6 -31 66 -2 46 -7 62 -17 62 -8 0 -15 5 -15 10 0 6 11 10 25
10 24 0 25 -2 25 -65z m-3732 27 c4 -26 22 -20 22 9 0 12 7 19 20 19 18 0 20
-7 20 -70 0 -56 -3 -70 -15 -70 -11 0 -15 11 -15 43 0 30 -3 38 -10 27 -10
-16 -12 -15 -28 15 -10 17 -11 12 -12 -32 0 -29 -4 -53 -10 -53 -6 0 -10 30
-10 71 0 62 2 70 18 67 9 -2 18 -13 20 -26z m1014 13 c-2 -5 -15 -8 -29 -7
-14 2 -30 -2 -34 -10 -13 -19 -11 -62 3 -76 17 -17 48 -15 48 3 0 8 -7 15 -15
15 -8 0 -15 5 -15 10 0 6 12 10 26 10 23 0 25 -3 22 -32 -3 -29 -7 -33 -34
-36 -41 -4 -64 20 -64 65 0 48 25 75 64 71 17 -2 30 -7 28 -13z m1680 0 c-2
-5 -12 -9 -23 -7 -28 5 -49 -16 -49 -47 0 -35 17 -51 53 -51 16 0 26 -4 22
-10 -10 -16 -57 -12 -77 7 -23 21 -24 80 -1 105 18 20 81 22 75 3z m-2535 -33
c6 -4 13 -16 15 -27 2 -16 -3 -21 -29 -23 -41 -4 -43 -22 -3 -22 17 0 30 -4
30 -10 0 -16 -52 -11 -72 7 -22 20 -23 46 -2 67 16 17 42 20 61 8z m131 -44
c2 -29 -1 -48 -7 -48 -6 0 -11 18 -11 40 0 33 -3 40 -20 40 -17 0 -20 -7 -20
-40 0 -22 -4 -40 -10 -40 -5 0 -10 22 -10 49 l0 49 38 -1 c37 -2 37 -2 40 -49z
m62 11 c0 -33 3 -40 18 -37 12 2 18 14 20 41 4 46 22 49 22 3 0 -19 3 -41 6
-49 4 -12 -3 -15 -33 -15 -21 0 -44 5 -50 10 -19 15 -17 88 2 88 11 0 15 -11
15 -41z m407 33 c6 -4 13 -16 15 -27 2 -16 -3 -21 -29 -23 -41 -4 -43 -22 -3
-22 17 0 30 -4 30 -10 0 -16 -52 -11 -72 7 -22 20 -23 46 -2 67 16 17 42 20
61 8z m360 0 c6 -4 13 -16 15 -27 2 -16 -3 -21 -29 -23 -41 -4 -43 -22 -3 -22
17 0 30 -4 30 -10 0 -16 -52 -11 -72 7 -22 20 -23 46 -2 67 16 17 42 20 61 8z
m131 -44 c2 -29 -1 -48 -7 -48 -6 0 -11 18 -11 40 0 33 -3 40 -20 40 -17 0
-20 -7 -20 -40 0 -22 -4 -40 -10 -40 -5 0 -10 22 -10 49 l0 49 38 -1 c37 -2
37 -2 40 -49z m109 44 c6 -4 13 -16 15 -27 2 -16 -3 -21 -29 -23 -41 -4 -43
-22 -3 -22 17 0 30 -4 30 -10 0 -16 -52 -11 -72 7 -22 20 -23 46 -2 67 16 17
42 20 61 8z m84 -4 c1 -7 0 -25 -1 -40 -1 -20 3 -28 14 -28 9 0 16 -4 16 -10
0 -5 -16 -10 -35 -10 -19 0 -35 5 -35 10 0 6 5 10 10 10 6 0 10 14 10 30 0 17
-4 30 -10 30 -5 0 -10 5 -10 10 0 15 40 12 41 -2z m56 -3 c3 -9 2 -19 -2 -23
-4 -4 -10 -1 -12 6 -3 6 -11 12 -19 12 -8 0 -14 5 -14 10 0 16 40 11 47 -5z
m97 -1 c9 -8 16 -24 16 -34 0 -10 3 -25 6 -33 5 -13 -3 -15 -43 -14 -42 2 -48
5 -51 25 -3 18 2 23 27 28 37 8 41 24 6 24 -14 0 -25 5 -25 10 0 16 47 12 64
-6z m133 0 c2 -7 -8 -9 -28 -6 -29 4 -30 3 -27 -24 2 -23 9 -30 31 -32 35 -4
35 -22 0 -22 -30 0 -63 25 -63 48 0 40 76 71 87 36z m103 -24 c0 -29 4 -40 15
-40 8 0 15 -4 15 -10 0 -5 -23 -10 -51 -10 -31 0 -48 4 -44 10 3 6 13 10 21
10 9 0 14 11 14 30 0 20 -5 30 -15 30 -8 0 -15 5 -15 10 0 6 14 10 30 10 28 0
30 -2 30 -40z m128 28 c7 -7 12 -24 12 -38 0 -52 -61 -71 -82 -25 -23 51 32
101 70 63z m130 -40 c2 -29 -1 -48 -7 -48 -6 0 -11 18 -11 40 0 33 -3 40 -20
40 -17 0 -20 -7 -20 -40 0 -22 -4 -40 -10 -40 -5 0 -10 22 -10 49 l0 49 38 -1
c37 -2 37 -2 40 -49z m349 44 c6 -4 13 -16 15 -27 2 -16 -3 -21 -29 -23 -41
-4 -43 -22 -3 -22 17 0 30 -4 30 -10 0 -16 -52 -11 -72 7 -22 20 -23 46 -2 67
16 17 42 20 61 8z m324 -4 c1 -7 0 -25 -1 -40 -1 -20 3 -28 14 -28 9 0 16 -4
16 -10 0 -5 -16 -10 -35 -10 -19 0 -35 5 -35 10 0 6 5 10 10 10 6 0 10 14 10
30 0 17 -4 30 -10 30 -5 0 -10 5 -10 10 0 15 40 12 41 -2z m56 -3 c3 -9 2 -19
-2 -23 -4 -4 -10 -1 -12 6 -3 6 -11 12 -19 12 -8 0 -14 5 -14 10 0 16 40 11
47 -5z m100 7 c6 -4 13 -16 15 -27 2 -16 -3 -21 -29 -23 -41 -4 -43 -22 -3
-22 17 0 30 -4 30 -10 0 -16 -52 -11 -72 7 -22 20 -23 46 -2 67 16 17 42 20
61 8z m240 0 c6 -4 13 -16 15 -27 2 -16 -3 -21 -29 -23 -41 -4 -43 -22 -3 -22
17 0 30 -4 30 -10 0 -16 -52 -11 -72 7 -22 20 -23 46 -2 67 16 17 42 20 61 8z
m131 -44 c2 -29 -1 -48 -7 -48 -6 0 -11 18 -11 40 0 33 -3 40 -20 40 -17 0
-20 -7 -20 -40 0 -22 -4 -40 -10 -40 -5 0 -10 22 -10 49 l0 49 38 -1 c37 -2
37 -2 40 -49z m119 36 c2 -7 -8 -9 -28 -6 -29 4 -30 3 -27 -24 2 -23 9 -30 31
-32 35 -4 35 -22 0 -22 -30 0 -63 25 -63 48 0 40 76 71 87 36z m103 -24 c0
-29 4 -40 15 -40 8 0 15 -4 15 -10 0 -5 -23 -10 -51 -10 -31 0 -48 4 -44 10 3
6 13 10 21 10 9 0 14 11 14 30 0 20 -5 30 -15 30 -8 0 -15 5 -15 10 0 6 14 10
30 10 28 0 30 -2 30 -40z m124 24 c9 -8 16 -24 16 -34 0 -10 3 -25 6 -33 5
-13 -3 -15 -43 -14 -42 2 -48 5 -51 25 -3 18 2 23 27 28 37 8 41 24 6 24 -14
0 -25 5 -25 10 0 16 47 12 64 -6z m243 8 c6 -4 13 -16 15 -27 2 -16 -3 -21
-29 -23 -41 -4 -43 -22 -3 -22 17 0 30 -4 30 -10 0 -16 -52 -11 -72 7 -22 20
-23 46 -2 67 16 17 42 20 61 8z m133 -2 c0 -5 -13 -10 -30 -10 -39 0 -39 -16
1 -24 25 -5 30 -10 27 -28 -2 -19 -10 -24 -40 -26 -22 -2 -38 1 -38 7 0 6 14
11 30 11 17 0 30 4 30 9 0 5 -13 11 -30 15 -29 5 -41 32 -23 49 10 11 73 8 73
-3z m90 -5 c0 -8 -4 -15 -9 -15 -13 0 -22 16 -14 24 11 11 23 6 23 -9z m0 -70
c0 -8 -4 -15 -9 -15 -13 0 -22 16 -14 24 11 11 23 6 23 -9z m-3320 -334 c0 -5
-10 -11 -22 -13 -31 -4 -39 -48 -9 -48 12 0 21 -4 21 -10 0 -5 -9 -10 -20 -10
-16 0 -20 -7 -20 -30 0 -16 -4 -30 -10 -30 -5 0 -10 14 -10 30 0 20 -5 30 -15
30 -8 0 -15 5 -15 10 0 6 7 10 15 10 9 0 15 9 15 23 0 13 5 28 12 35 14 14 58
16 58 3z m90 -12 c0 -5 -7 -9 -15 -9 -15 0 -20 12 -9 23 8 8 24 -1 24 -14z
m-850 -49 c0 -47 3 -60 15 -60 8 0 15 -4 15 -10 0 -5 -18 -10 -40 -10 -22 0
-40 5 -40 10 0 6 7 10 15 10 11 0 15 12 15 50 0 40 -3 48 -15 44 -8 -4 -15 -2
-15 4 0 6 6 13 13 15 32 14 37 7 37 -53z m392 45 c-2 -5 -12 -9 -23 -7 -28 5
-49 -16 -49 -47 0 -35 17 -51 53 -51 16 0 26 -4 22 -10 -10 -16 -57 -12 -77 7
-23 21 -24 80 -1 105 18 20 81 22 75 3z m1328 5 c0 -5 -16 -10 -35 -10 -28 0
-35 -4 -35 -20 0 -15 7 -20 25 -20 14 0 25 -4 25 -10 0 -5 -11 -10 -25 -10
-18 0 -25 -5 -25 -20 0 -16 7 -20 35 -20 19 0 35 -4 35 -10 0 -5 -22 -10 -50
-10 l-50 0 0 70 0 70 50 0 c28 0 50 -4 50 -10z m420 -15 c0 -9 9 -15 25 -15
14 0 25 -4 25 -10 0 -5 -12 -10 -26 -10 -22 0 -25 -4 -22 -27 2 -20 9 -29 26
-31 29 -4 29 -22 -1 -22 -31 0 -47 18 -47 51 0 15 -6 30 -12 33 -10 5 -10 7 0
12 6 3 12 12 12 20 0 8 5 14 10 14 6 0 10 -7 10 -15z m-1642 -27 c15 -15 15
-61 0 -76 -38 -38 -93 12 -70 63 13 27 49 34 70 13z m130 -40 c2 -29 -1 -48
-7 -48 -6 0 -11 18 -11 40 0 33 -3 40 -20 40 -17 0 -20 -7 -20 -40 0 -22 -4
-40 -10 -40 -5 0 -10 22 -10 49 l0 49 38 -1 c37 -2 37 -2 40 -49z m222 12 c0
-29 4 -40 15 -40 8 0 15 -4 15 -10 0 -5 -23 -10 -51 -10 -31 0 -48 4 -44 10 3
6 13 10 21 10 9 0 14 11 14 30 0 20 -5 30 -15 30 -8 0 -15 5 -15 10 0 6 14 10
30 10 28 0 30 -2 30 -40z m140 -21 c0 -62 -13 -79 -59 -79 -31 0 -26 18 6 22
14 2 28 8 30 15 3 7 -3 9 -16 6 -28 -7 -51 14 -51 46 0 36 17 51 57 49 l33 -1
0 -58z m60 20 c0 -33 3 -40 18 -37 12 2 18 14 20 41 4 46 22 49 22 3 0 -19 3
-41 6 -49 4 -12 -3 -15 -33 -15 -21 0 -44 5 -50 10 -19 15 -17 88 2 88 11 0
15 -11 15 -41z m131 29 c1 -7 0 -25 -1 -40 -1 -20 3 -28 14 -28 9 0 16 -4 16
-10 0 -5 -16 -10 -35 -10 -19 0 -35 5 -35 10 0 6 5 10 10 10 6 0 10 14 10 30
0 17 -4 30 -10 30 -5 0 -10 5 -10 10 0 15 40 12 41 -2z m56 -3 c3 -9 2 -19 -2
-23 -4 -4 -10 -1 -12 6 -3 6 -11 12 -19 12 -8 0 -14 5 -14 10 0 16 40 11 47
-5z m97 -1 c9 -8 16 -24 16 -34 0 -10 3 -25 6 -33 5 -13 -3 -15 -43 -14 -42 2
-48 5 -51 25 -3 18 2 23 27 28 37 8 41 24 6 24 -14 0 -25 5 -25 10 0 16 47 12
64 -6z m87 4 c1 -7 0 -25 -1 -40 -1 -20 3 -28 14 -28 9 0 16 -4 16 -10 0 -5
-16 -10 -35 -10 -19 0 -35 5 -35 10 0 6 5 10 10 10 6 0 10 14 10 30 0 17 -4
30 -10 30 -5 0 -10 5 -10 10 0 15 40 12 41 -2z m56 -3 c3 -9 2 -19 -2 -23 -4
-4 -10 -1 -12 6 -3 6 -11 12 -19 12 -8 0 -14 5 -14 10 0 16 40 11 47 -5z m294
-20 c16 -43 24 -44 35 -3 5 17 15 33 22 36 9 3 7 -10 -6 -45 -22 -60 -43 -66
-61 -16 -8 21 -16 44 -18 51 -3 6 0 12 5 12 6 0 16 -16 23 -35z m166 27 c6 -4
13 -16 15 -27 2 -16 -3 -21 -29 -23 -41 -4 -43 -22 -3 -22 17 0 30 -4 30 -10
0 -16 -52 -11 -72 7 -22 20 -23 46 -2 67 16 17 42 20 61 8z m131 -44 c2 -29
-1 -48 -7 -48 -6 0 -11 18 -11 40 0 33 -3 40 -20 40 -17 0 -20 -7 -20 -40 0
-22 -4 -40 -10 -40 -5 0 -10 22 -10 49 l0 49 38 -1 c37 -2 37 -2 40 -49z m230
40 c7 -7 12 -24 12 -38 0 -52 -61 -71 -82 -25 -23 51 32 101 70 63z m-2178
-73 c0 -8 -4 -15 -9 -15 -13 0 -22 16 -14 24 11 11 23 6 23 -9z m1120 -104 c0
-5 -10 -11 -22 -13 -31 -4 -39 -48 -9 -48 12 0 21 -4 21 -10 0 -5 -9 -10 -20
-10 -16 0 -20 -7 -20 -30 0 -16 -4 -30 -10 -30 -5 0 -10 14 -10 30 0 20 -5 30
-15 30 -8 0 -15 5 -15 10 0 6 7 10 15 10 9 0 15 9 15 23 0 13 5 28 12 35 14
14 58 16 58 3z m90 -12 c0 -5 -7 -9 -15 -9 -15 0 -20 12 -9 23 8 8 24 -1 24
-14z m720 0 c0 -5 -7 -9 -15 -9 -15 0 -20 12 -9 23 8 8 24 -1 24 -14z m500
-52 l0 -74 -32 -1 c-41 -1 -58 13 -58 48 0 33 22 54 50 47 17 -4 20 0 20 24 0
16 5 29 10 29 6 0 10 -31 10 -73z m200 8 c0 -58 2 -65 20 -65 11 0 20 -5 20
-11 0 -6 -12 -9 -27 -7 -27 3 -28 6 -31 66 -2 46 -7 62 -17 62 -8 0 -15 5 -15
10 0 6 11 10 25 10 24 0 25 -2 25 -65z m-2732 43 c19 -19 14 -44 -14 -77 l-26
-31 26 0 c13 0 28 -4 31 -10 4 -6 -13 -10 -44 -10 -28 0 -51 3 -51 7 0 4 16
21 36 39 45 41 43 70 -4 67 -27 -1 -31 1 -21 13 14 17 51 18 67 2z m312 -43
c15 -62 21 -61 40 8 7 26 17 47 22 47 6 0 7 -10 4 -22 -4 -13 -12 -44 -18 -70
-17 -70 -40 -65 -61 12 -19 68 -20 80 -9 80 5 0 15 -25 22 -55z m542 40 c-2
-5 -12 -9 -23 -7 -28 5 -49 -16 -49 -47 0 -35 17 -51 53 -51 16 0 26 -4 22
-10 -10 -16 -57 -12 -77 7 -23 21 -24 80 -1 105 18 20 81 22 75 3z m2168 5 c0
-5 -16 -10 -35 -10 -28 0 -35 -4 -35 -20 0 -15 7 -20 25 -20 14 0 25 -4 25
-10 0 -5 -11 -10 -25 -10 -18 0 -25 -5 -25 -20 0 -16 7 -20 35 -20 19 0 35 -4
35 -10 0 -5 -22 -10 -50 -10 l-50 0 0 70 0 70 50 0 c28 0 50 -4 50 -10z m420
-15 c0 -9 9 -15 25 -15 14 0 25 -4 25 -10 0 -5 -12 -10 -26 -10 -22 0 -25 -4
-22 -27 2 -20 9 -29 26 -31 29 -4 29 -22 -1 -22 -31 0 -47 18 -47 51 0 15 -6
30 -12 33 -10 5 -10 7 0 12 6 3 12 12 12 20 0 8 5 14 10 14 6 0 10 -7 10 -15z
m-2963 -23 c6 -4 13 -16 15 -27 2 -16 -3 -21 -29 -23 -41 -4 -43 -22 -3 -22
17 0 30 -4 30 -10 0 -16 -52 -11 -72 7 -22 20 -23 46 -2 67 16 17 42 20 61 8z
m84 -4 c1 -7 0 -25 -1 -40 -1 -20 3 -28 14 -28 9 0 16 -4 16 -10 0 -5 -16 -10
-35 -10 -19 0 -35 5 -35 10 0 6 5 10 10 10 6 0 10 14 10 30 0 17 -4 30 -10 30
-5 0 -10 5 -10 10 0 15 40 12 41 -2z m56 -3 c3 -9 2 -19 -2 -23 -4 -4 -10 -1
-12 6 -3 6 -11 12 -19 12 -8 0 -14 5 -14 10 0 16 40 11 47 -5z m341 3 c15 -15
15 -61 0 -76 -38 -38 -93 12 -70 63 13 27 49 34 70 13z m130 -40 c2 -29 -1
-48 -7 -48 -6 0 -11 18 -11 40 0 33 -3 40 -20 40 -17 0 -20 -7 -20 -40 0 -22
-4 -40 -10 -40 -5 0 -10 22 -10 49 l0 49 38 -1 c37 -2 37 -2 40 -49z m222 12
c0 -29 4 -40 15 -40 8 0 15 -4 15 -10 0 -5 -23 -10 -51 -10 -31 0 -48 4 -44
10 3 6 13 10 21 10 9 0 14 11 14 30 0 20 -5 30 -15 30 -8 0 -15 5 -15 10 0 6
14 10 30 10 28 0 30 -2 30 -40z m140 -21 c0 -62 -13 -79 -59 -79 -31 0 -26 18
6 22 14 2 28 8 30 15 3 7 -3 9 -16 6 -28 -7 -51 14 -51 46 0 36 17 51 57 49
l33 -1 0 -58z m60 20 c0 -33 3 -40 18 -37 12 2 18 14 20 41 4 46 22 49 22 3 0
-19 3 -41 6 -49 4 -12 -3 -15 -33 -15 -21 0 -44 5 -50 10 -19 15 -17 88 2 88
11 0 15 -11 15 -41z m131 29 c1 -7 0 -25 -1 -40 -1 -20 3 -28 14 -28 9 0 16
-4 16 -10 0 -5 -16 -10 -35 -10 -19 0 -35 5 -35 10 0 6 5 10 10 10 6 0 10 14
10 30 0 17 -4 30 -10 30 -5 0 -10 5 -10 10 0 15 40 12 41 -2z m56 -3 c3 -9 2
-19 -2 -23 -4 -4 -10 -1 -12 6 -3 6 -11 12 -19 12 -8 0 -14 5 -14 10 0 16 40
11 47 -5z m97 -1 c9 -8 16 -24 16 -34 0 -10 3 -25 6 -33 5 -13 -3 -15 -43 -14
-42 2 -48 5 -51 25 -3 18 2 23 27 28 37 8 41 24 6 24 -14 0 -25 5 -25 10 0 16
47 12 64 -6z m133 0 c2 -7 -8 -9 -28 -6 -29 4 -30 3 -27 -24 2 -23 9 -30 31
-32 35 -4 35 -22 0 -22 -30 0 -63 25 -63 48 0 40 76 71 87 36z m103 -24 c0
-29 4 -40 15 -40 8 0 15 -4 15 -10 0 -5 -23 -10 -51 -10 -31 0 -48 4 -44 10 3
6 13 10 21 10 9 0 14 11 14 30 0 20 -5 30 -15 30 -8 0 -15 5 -15 10 0 6 14 10
30 10 28 0 30 -2 30 -40z m128 28 c7 -7 12 -24 12 -38 0 -52 -61 -71 -82 -25
-23 51 32 101 70 63z m130 -40 c2 -29 -1 -48 -7 -48 -6 0 -11 18 -11 40 0 33
-3 40 -20 40 -17 0 -20 -7 -20 -40 0 -22 -4 -40 -10 -40 -5 0 -10 22 -10 49
l0 49 38 -1 c37 -2 37 -2 40 -49z m349 44 c6 -4 13 -16 15 -27 2 -16 -3 -21
-29 -23 -41 -4 -43 -22 -3 -22 17 0 30 -4 30 -10 0 -16 -52 -11 -72 7 -22 20
-23 46 -2 67 16 17 42 20 61 8z m434 -27 c16 -43 24 -44 35 -3 5 17 15 33 22
36 9 3 7 -10 -6 -45 -22 -60 -43 -66 -61 -16 -8 21 -16 44 -18 51 -3 6 0 12 5
12 6 0 16 -16 23 -35z m166 27 c6 -4 13 -16 15 -27 2 -16 -3 -21 -29 -23 -41
-4 -43 -22 -3 -22 17 0 30 -4 30 -10 0 -16 -52 -11 -72 7 -22 20 -23 46 -2 67
16 17 42 20 61 8z m131 -44 c2 -29 -1 -48 -7 -48 -6 0 -11 18 -11 40 0 33 -3
40 -20 40 -17 0 -20 -7 -20 -40 0 -22 -4 -40 -10 -40 -5 0 -10 22 -10 49 l0
49 38 -1 c37 -2 37 -2 40 -49z m230 40 c7 -7 12 -24 12 -38 0 -52 -61 -71 -82
-25 -23 51 32 101 70 63z m-3498 -73 c0 -8 -4 -15 -9 -15 -13 0 -22 16 -14 24
11 11 23 6 23 -9z m1590 -168 l0 -74 -32 -1 c-41 -1 -58 13 -58 48 0 33 22 54
50 47 17 -4 20 0 20 24 0 16 5 29 10 29 6 0 10 -31 10 -73z m460 52 c0 -5 -7
-9 -15 -9 -15 0 -20 12 -9 23 8 8 24 -1 24 -14z m220 -44 c0 -58 2 -65 20 -65
11 0 20 -5 20 -11 0 -6 -12 -9 -27 -7 -27 3 -28 6 -31 66 -2 46 -7 62 -17 62
-8 0 -15 5 -15 10 0 6 11 10 25 10 24 0 25 -2 25 -65z m-2369 39 c9 -11 10
-20 2 -32 -7 -12 -7 -22 1 -35 16 -25 -4 -51 -43 -55 -17 -2 -31 1 -31 7 0 6
14 11 30 11 36 0 42 29 9 37 l-22 6 23 17 c28 21 18 44 -16 36 -23 -6 -32 3
-17 17 12 13 50 7 64 -9z m361 -49 c21 -70 21 -75 8 -75 -5 0 -10 7 -10 15 0
10 -10 15 -30 15 -20 0 -30 -5 -30 -15 0 -8 -4 -15 -10 -15 -14 0 -13 11 7 81
21 77 40 75 65 -6z m970 50 c-2 -5 -12 -9 -23 -7 -28 5 -49 -16 -49 -47 0 -35
17 -51 53 -51 16 0 26 -4 22 -10 -10 -16 -57 -12 -77 7 -23 21 -24 80 -1 105
18 20 81 22 75 3z m-842 -86 c0 -62 -13 -79 -59 -79 -31 0 -26 18 6 22 14 2
28 8 30 15 3 7 -3 9 -16 6 -28 -7 -51 14 -51 46 0 36 17 51 57 49 l33 -1 0
-58z m71 49 c1 -7 0 -25 -1 -40 -1 -20 3 -28 14 -28 9 0 16 -4 16 -10 0 -5
-16 -10 -35 -10 -19 0 -35 5 -35 10 0 6 5 10 10 10 6 0 10 14 10 30 0 17 -4
30 -10 30 -5 0 -10 5 -10 10 0 15 40 12 41 -2z m56 -3 c3 -9 2 -19 -2 -23 -4
-4 -10 -1 -12 6 -3 6 -11 12 -19 12 -8 0 -14 5 -14 10 0 16 40 11 47 -5z m100
7 c6 -4 13 -16 15 -27 2 -16 -3 -21 -29 -23 -41 -4 -43 -22 -3 -22 17 0 30 -4
30 -10 0 -16 -52 -11 -72 7 -22 20 -23 46 -2 67 16 17 42 20 61 8z m133 -53
c0 -62 -13 -79 -59 -79 -31 0 -26 18 6 22 14 2 28 8 30 15 3 7 -3 9 -16 6 -28
-7 -51 14 -51 46 0 36 17 51 57 49 l33 -1 0 -58z m104 45 c9 -8 16 -24 16 -34
0 -10 3 -25 6 -33 5 -13 -3 -15 -43 -14 -42 2 -48 5 -51 25 -3 18 2 23 27 28
37 8 41 24 6 24 -14 0 -25 5 -25 10 0 16 47 12 64 -6z m87 4 c1 -7 0 -25 -1
-40 -1 -20 3 -28 14 -28 9 0 16 -4 16 -10 0 -5 -16 -10 -35 -10 -19 0 -35 5
-35 10 0 6 5 10 10 10 6 0 10 14 10 30 0 17 -4 30 -10 30 -5 0 -10 5 -10 10 0
15 40 12 41 -2z m56 -3 c3 -9 2 -19 -2 -23 -4 -4 -10 -1 -12 6 -3 6 -11 12
-19 12 -8 0 -14 5 -14 10 0 16 40 11 47 -5z m304 3 c1 -7 0 -25 -1 -40 -1 -20
3 -28 14 -28 9 0 16 -4 16 -10 0 -5 -16 -10 -35 -10 -19 0 -35 5 -35 10 0 6 5
10 10 10 6 0 10 14 10 30 0 17 -4 30 -10 30 -5 0 -10 5 -10 10 0 15 40 12 41
-2z m56 -3 c3 -9 2 -19 -2 -23 -4 -4 -10 -1 -12 6 -3 6 -11 12 -19 12 -8 0
-14 5 -14 10 0 16 40 11 47 -5z m100 7 c6 -4 13 -16 15 -27 2 -16 -3 -21 -29
-23 -41 -4 -43 -22 -3 -22 17 0 30 -4 30 -10 0 -16 -52 -11 -72 7 -22 20 -23
46 -2 67 16 17 42 20 61 8z m240 0 c6 -4 13 -16 15 -27 2 -16 -3 -21 -29 -23
-41 -4 -43 -22 -3 -22 17 0 30 -4 30 -10 0 -16 -52 -11 -72 7 -22 20 -23 46
-2 67 16 17 42 20 61 8z m131 -44 c2 -29 -1 -48 -7 -48 -6 0 -11 18 -11 40 0
33 -3 40 -20 40 -17 0 -20 -7 -20 -40 0 -22 -4 -40 -10 -40 -5 0 -10 22 -10
49 l0 49 38 -1 c37 -2 37 -2 40 -49z m119 36 c2 -7 -8 -9 -28 -6 -29 4 -30 3
-27 -24 2 -23 9 -30 31 -32 35 -4 35 -22 0 -22 -30 0 -63 25 -63 48 0 40 76
71 87 36z m103 -24 c0 -29 4 -40 15 -40 8 0 15 -4 15 -10 0 -5 -23 -10 -51
-10 -31 0 -48 4 -44 10 3 6 13 10 21 10 9 0 14 11 14 30 0 20 -5 30 -15 30 -8
0 -15 5 -15 10 0 6 14 10 30 10 28 0 30 -2 30 -40z m124 24 c9 -8 16 -24 16
-34 0 -10 3 -25 6 -33 5 -13 -3 -15 -43 -14 -42 2 -48 5 -51 25 -3 18 2 23 27
28 37 8 41 24 6 24 -14 0 -25 5 -25 10 0 16 47 12 64 -6z m-2174 -69 c0 -8 -4
-15 -9 -15 -13 0 -22 16 -14 24 11 11 23 6 23 -9z m990 -168 l0 -74 -32 -1
c-41 -1 -58 13 -58 48 0 33 22 54 50 47 17 -4 20 0 20 24 0 16 5 29 10 29 6 0
10 -31 10 -73z m440 8 c0 -58 2 -65 20 -65 11 0 20 -5 20 -11 0 -6 -12 -9 -27
-7 -27 3 -28 6 -31 66 -2 46 -7 62 -17 62 -8 0 -15 5 -15 10 0 6 11 10 25 10
24 0 25 -2 25 -65z m880 -8 l0 -74 -32 -1 c-41 -1 -58 13 -58 48 0 33 22 54
50 47 17 -4 20 0 20 24 0 16 5 29 10 29 6 0 10 -31 10 -73z m460 52 c0 -5 -7
-9 -15 -9 -15 0 -20 12 -9 23 8 8 24 -1 24 -14z m220 -44 c0 -58 2 -65 20 -65
11 0 20 -5 20 -11 0 -6 -12 -9 -27 -7 -27 3 -28 6 -31 66 -2 46 -7 62 -17 62
-8 0 -15 5 -15 10 0 6 11 10 25 10 24 0 25 -2 25 -65z m-3078 3 c2 -29 2 -61
0 -70 -5 -22 -22 -24 -22 -3 0 11 -11 15 -36 15 -36 0 -36 1 -30 31 3 17 6 40
6 50 0 11 7 19 15 19 8 0 13 -6 11 -12 -18 -58 -17 -68 9 -68 23 0 25 4 25 45
0 62 17 57 22 -7z m298 -3 c15 -62 21 -61 40 8 7 26 17 47 22 47 6 0 7 -10 4
-22 -4 -13 -12 -44 -18 -70 -17 -70 -40 -65 -61 12 -19 68 -20 80 -9 80 5 0
15 -25 22 -55z m1742 40 c-2 -5 -12 -9 -23 -7 -28 5 -49 -16 -49 -47 0 -35 17
-51 53 -51 16 0 26 -4 22 -10 -10 -16 -57 -12 -77 7 -23 21 -24 80 -1 105 18
20 81 22 75 3z m-1252 -10 c0 -9 9 -15 25 -15 14 0 25 -4 25 -10 0 -5 -12 -10
-26 -10 -22 0 -25 -4 -22 -27 2 -20 9 -29 26 -31 29 -4 29 -22 -1 -22 -31 0
-47 18 -47 51 0 15 -6 30 -12 33 -10 5 -10 7 0 12 6 3 12 12 12 20 0 8 5 14
10 14 6 0 10 -7 10 -15z m-323 -23 c6 -4 13 -16 15 -27 2 -16 -3 -21 -29 -23
-41 -4 -43 -22 -3 -22 17 0 30 -4 30 -10 0 -16 -52 -11 -72 7 -22 20 -23 46
-2 67 16 17 42 20 61 8z m84 -4 c1 -7 0 -25 -1 -40 -1 -20 3 -28 14 -28 9 0
16 -4 16 -10 0 -5 -16 -10 -35 -10 -19 0 -35 5 -35 10 0 6 5 10 10 10 6 0 10
14 10 30 0 17 -4 30 -10 30 -5 0 -10 5 -10 10 0 15 40 12 41 -2z m56 -3 c3 -9
2 -19 -2 -23 -4 -4 -10 -1 -12 6 -3 6 -11 12 -19 12 -8 0 -14 5 -14 10 0 16
40 11 47 -5z m341 3 c15 -15 15 -61 0 -76 -21 -21 -57 -14 -70 13 -23 51 32
101 70 63z m236 -4 c9 -8 16 -24 16 -34 0 -10 3 -25 6 -33 5 -13 -3 -15 -43
-14 -42 2 -48 5 -51 25 -3 18 2 23 27 28 37 8 41 24 6 24 -14 0 -25 5 -25 10
0 16 47 12 64 -6z m136 6 c0 -5 -13 -10 -30 -10 -39 0 -39 -16 1 -24 25 -5 30
-10 27 -28 -2 -19 -10 -24 -40 -26 -22 -2 -38 1 -38 7 0 6 14 11 30 11 17 0
30 4 30 9 0 5 -13 11 -30 15 -29 5 -41 32 -23 49 10 11 73 8 73 -3z m344 -6
c9 -8 16 -24 16 -34 0 -10 3 -25 6 -33 5 -13 -3 -15 -43 -14 -42 2 -48 5 -51
25 -3 18 2 23 27 28 37 8 41 24 6 24 -14 0 -25 5 -25 10 0 16 47 12 64 -6z
m136 6 c0 -5 -13 -10 -30 -10 -39 0 -39 -16 1 -24 25 -5 30 -10 27 -28 -2 -19
-10 -24 -40 -26 -22 -2 -38 1 -38 7 0 6 14 11 30 11 17 0 30 4 30 9 0 5 -13
11 -30 15 -29 5 -41 32 -23 49 10 11 73 8 73 -3z m311 -2 c1 -7 0 -25 -1 -40
-1 -20 3 -28 14 -28 9 0 16 -4 16 -10 0 -5 -16 -10 -35 -10 -19 0 -35 5 -35
10 0 6 5 10 10 10 6 0 10 14 10 30 0 17 -4 30 -10 30 -5 0 -10 5 -10 10 0 15
40 12 41 -2z m56 -3 c3 -9 2 -19 -2 -23 -4 -4 -10 -1 -12 6 -3 6 -11 12 -19
12 -8 0 -14 5 -14 10 0 16 40 11 47 -5z m100 7 c6 -4 13 -16 15 -27 2 -16 -3
-21 -29 -23 -41 -4 -43 -22 -3 -22 17 0 30 -4 30 -10 0 -16 -52 -11 -72 7 -22
20 -23 46 -2 67 16 17 42 20 61 8z m240 0 c6 -4 13 -16 15 -27 2 -16 -3 -21
-29 -23 -41 -4 -43 -22 -3 -22 17 0 30 -4 30 -10 0 -16 -52 -11 -72 7 -22 20
-23 46 -2 67 16 17 42 20 61 8z m131 -44 c2 -29 -1 -48 -7 -48 -6 0 -11 18
-11 40 0 33 -3 40 -20 40 -17 0 -20 -7 -20 -40 0 -22 -4 -40 -10 -40 -5 0 -10
22 -10 49 l0 49 38 -1 c37 -2 37 -2 40 -49z m119 36 c2 -7 -8 -9 -28 -6 -29 4
-30 3 -27 -24 2 -23 9 -30 31 -32 35 -4 35 -22 0 -22 -30 0 -63 25 -63 48 0
40 76 71 87 36z m103 -24 c0 -29 4 -40 15 -40 8 0 15 -4 15 -10 0 -5 -23 -10
-51 -10 -31 0 -48 4 -44 10 3 6 13 10 21 10 9 0 14 11 14 30 0 20 -5 30 -15
30 -8 0 -15 5 -15 10 0 6 14 10 30 10 28 0 30 -2 30 -40z m124 24 c9 -8 16
-24 16 -34 0 -10 3 -25 6 -33 5 -13 -3 -15 -43 -14 -42 2 -48 5 -51 25 -3 18
2 23 27 28 37 8 41 24 6 24 -14 0 -25 5 -25 10 0 16 47 12 64 -6z m243 8 c6
-4 13 -16 15 -27 2 -16 -3 -21 -29 -23 -41 -4 -43 -22 -3 -22 17 0 30 -4 30
-10 0 -16 -52 -11 -72 7 -22 20 -23 46 -2 67 16 17 42 20 61 8z m133 -2 c0 -5
-13 -10 -30 -10 -39 0 -39 -16 1 -24 25 -5 30 -10 27 -28 -2 -19 -10 -24 -40
-26 -22 -2 -38 1 -38 7 0 6 14 11 30 11 17 0 30 4 30 9 0 5 -13 11 -30 15 -29
5 -41 32 -23 49 10 11 73 8 73 -3z m-3270 -75 c0 -8 -4 -15 -9 -15 -13 0 -22
16 -14 24 11 11 23 6 23 -9z m470 -160 c0 -58 2 -65 20 -65 11 0 20 -5 20 -11
0 -6 -12 -9 -27 -7 -27 3 -28 6 -31 66 -2 46 -7 62 -17 62 -8 0 -15 5 -15 10
0 6 11 10 25 10 24 0 25 -2 25 -65z m140 44 c0 -5 -7 -9 -15 -9 -15 0 -20 12
-9 23 8 8 24 -1 24 -14z m-700 1 c0 -5 -13 -10 -30 -10 -20 0 -30 -5 -30 -15
0 -9 9 -15 25 -15 33 0 52 -38 36 -69 -15 -28 -66 -29 -81 -1 -9 16 -8 20 5
20 8 0 15 -4 15 -10 0 -14 38 -12 43 3 8 23 -5 37 -34 37 -26 0 -29 3 -29 35
0 34 1 35 40 35 22 0 40 -4 40 -10z m358 -7 c2 -9 -5 -11 -27 -7 -42 9 -42
-20 -1 -41 33 -17 42 -58 14 -69 -24 -9 -62 -7 -69 4 -4 6 8 10 29 10 45 0 48
23 6 45 -29 15 -41 51 -23 69 11 11 66 2 71 -11z m106 -39 c9 -8 16 -24 16
-34 0 -10 3 -25 6 -33 5 -13 -3 -15 -43 -14 -42 2 -48 5 -51 25 -3 18 2 23 27
28 37 8 41 24 6 24 -14 0 -25 5 -25 10 0 16 47 12 64 -6z m236 -24 c0 -29 4
-40 15 -40 8 0 15 -4 15 -10 0 -5 -23 -10 -51 -10 -31 0 -48 4 -44 10 3 6 13
10 21 10 9 0 14 11 14 30 0 20 -5 30 -15 30 -8 0 -15 5 -15 10 0 6 14 10 30
10 28 0 30 -2 30 -40z m91 28 c1 -7 0 -25 -1 -40 -1 -20 3 -28 14 -28 9 0 16
-4 16 -10 0 -5 -16 -10 -35 -10 -19 0 -35 5 -35 10 0 6 5 10 10 10 6 0 10 14
10 30 0 17 -4 30 -10 30 -5 0 -10 5 -10 10 0 15 40 12 41 -2z m56 -3 c3 -9 2
-19 -2 -23 -4 -4 -10 -1 -12 6 -3 6 -11 12 -19 12 -8 0 -14 5 -14 10 0 16 40
11 47 -5z m-757 -70 c0 -8 -4 -15 -9 -15 -13 0 -22 16 -14 24 11 11 23 6 23
-9z m230 -160 c0 -58 2 -65 20 -65 11 0 20 -5 20 -11 0 -6 -12 -9 -27 -7 -27
3 -28 6 -31 66 -2 46 -7 62 -17 62 -8 0 -15 5 -15 10 0 6 11 10 25 10 24 0 25
-2 25 -65z m500 44 c0 -5 -7 -9 -15 -9 -15 0 -20 12 -9 23 8 8 24 -1 24 -14z
m1440 0 c0 -5 -7 -9 -15 -9 -15 0 -20 12 -9 23 8 8 24 -1 24 -14z m-2142 -6
c2 -9 -5 -11 -27 -7 -42 9 -42 -20 -1 -41 33 -17 42 -58 14 -69 -24 -9 -62 -7
-69 4 -4 6 8 10 29 10 45 0 48 23 6 45 -29 15 -41 51 -23 69 11 11 66 2 71
-11z m1796 1 c9 -9 16 -32 16 -54 0 -44 -20 -70 -55 -70 -28 0 -45 26 -45 70
0 17 5 40 10 51 13 23 53 25 74 3z m-1687 -32 c6 -4 13 -16 15 -27 2 -16 -3
-21 -29 -23 -41 -4 -43 -22 -3 -22 17 0 30 -4 30 -10 0 -16 -52 -11 -72 7 -22
20 -23 46 -2 67 16 17 42 20 61 8z m240 0 c6 -4 13 -16 15 -27 2 -16 -3 -21
-29 -23 -41 -4 -43 -22 -3 -22 17 0 30 -4 30 -10 0 -16 -52 -11 -72 7 -22 20
-23 46 -2 67 16 17 42 20 61 8z m130 -8 c2 -7 -8 -9 -28 -6 -29 4 -30 3 -27
-24 2 -23 9 -30 31 -32 35 -4 35 -22 0 -22 -30 0 -63 25 -63 48 0 40 76 71 87
36z m120 0 c2 -7 -8 -9 -28 -6 -29 4 -30 3 -27 -24 2 -23 9 -30 31 -32 35 -4
35 -22 0 -22 -30 0 -63 25 -63 48 0 40 76 71 87 36z m103 -24 c0 -29 4 -40 15
-40 8 0 15 -4 15 -10 0 -5 -23 -10 -51 -10 -31 0 -48 4 -44 10 3 6 13 10 21
10 9 0 14 11 14 30 0 20 -5 30 -15 30 -8 0 -15 5 -15 10 0 6 14 10 30 10 28 0
30 -2 30 -40z m128 28 c15 -15 15 -61 0 -76 -21 -21 -57 -14 -70 13 -23 51 32
101 70 63z m130 -40 c2 -29 -1 -48 -7 -48 -6 0 -11 18 -11 40 0 33 -3 40 -20
40 -17 0 -20 -7 -20 -40 0 -22 -4 -40 -10 -40 -5 0 -10 22 -10 49 l0 49 38 -1
c37 -2 37 -2 40 -49z m109 44 c6 -4 13 -16 15 -27 2 -16 -3 -21 -29 -23 -41
-4 -43 -22 -3 -22 17 0 30 -4 30 -10 0 -16 -52 -11 -72 7 -22 20 -23 46 -2 67
16 17 42 20 61 8z m193 -33 c0 -33 3 -40 18 -37 12 2 18 14 20 41 4 46 22 49
22 3 0 -19 3 -41 6 -49 4 -12 -3 -15 -33 -15 -21 0 -44 5 -50 10 -19 15 -17
88 2 88 11 0 15 -11 15 -41z m178 -11 c2 -29 -1 -48 -7 -48 -6 0 -11 18 -11
40 0 33 -3 40 -20 40 -17 0 -20 -7 -20 -40 0 -22 -4 -40 -10 -40 -5 0 -10 22
-10 49 l0 49 38 -1 c37 -2 37 -2 40 -49z m106 36 c9 -8 16 -24 16 -34 0 -10 3
-25 6 -33 5 -13 -3 -15 -43 -14 -42 2 -48 5 -51 25 -3 18 2 23 27 28 37 8 41
24 6 24 -14 0 -25 5 -25 10 0 16 47 12 64 -6z m378 -9 c17 -38 -4 -79 -37 -72
-21 3 -25 0 -25 -19 0 -13 -4 -24 -10 -24 -6 0 -10 29 -10 68 l0 69 35 1 c29
1 38 -3 47 -23z m115 9 c2 -7 -8 -9 -28 -6 -29 4 -30 3 -27 -24 2 -23 9 -30
31 -32 35 -4 35 -22 0 -22 -30 0 -63 25 -63 48 0 40 76 71 87 36z m103 -24 c0
-29 4 -40 15 -40 8 0 15 -4 15 -10 0 -5 -23 -10 -51 -10 -31 0 -48 4 -44 10 3
6 13 10 21 10 9 0 14 11 14 30 0 20 -5 30 -15 30 -8 0 -15 5 -15 10 0 6 14 10
30 10 28 0 30 -2 30 -40z m128 28 c7 -7 12 -24 12 -38 0 -52 -61 -71 -82 -25
-23 51 32 101 70 63z m130 -40 c2 -29 -1 -48 -7 -48 -6 0 -11 18 -11 40 0 33
-3 40 -20 40 -17 0 -20 -7 -20 -40 0 -22 -4 -40 -10 -40 -5 0 -10 22 -10 49
l0 49 38 -1 c37 -2 37 -2 40 -49z m92 37 c0 -8 -4 -15 -9 -15 -13 0 -22 16
-14 24 11 11 23 6 23 -9z m-2600 -15 c0 -5 -22 -10 -50 -10 -27 0 -50 5 -50
10 0 6 23 10 50 10 28 0 50 -4 50 -10z m2600 -55 c0 -8 -4 -15 -9 -15 -13 0
-22 16 -14 24 11 11 23 6 23 -9z"/>
<path d="M674 5476 c-9 -24 4 -48 23 -44 12 2 18 12 18 28 0 29 -32 41 -41 16z"/>
<path d="M2354 5476 c-9 -24 4 -48 23 -44 12 2 18 12 18 28 0 29 -32 41 -41
16z"/>
<path d="M3074 5476 c-9 -24 4 -48 23 -44 12 2 18 12 18 28 0 29 -32 41 -41
16z"/>
<path d="M195 5480 c-4 -6 5 -10 19 -10 14 0 26 5 26 10 0 6 -9 10 -19 10 -11
0 -23 -4 -26 -10z"/>
<path d="M795 5480 c-4 -6 5 -10 19 -10 14 0 26 5 26 10 0 6 -9 10 -19 10 -11
0 -23 -4 -26 -10z"/>
<path d="M1155 5480 c-4 -6 5 -10 19 -10 14 0 26 5 26 10 0 6 -9 10 -19 10
-11 0 -23 -4 -26 -10z"/>
<path d="M1395 5480 c-4 -6 5 -10 19 -10 14 0 26 5 26 10 0 6 -9 10 -19 10
-11 0 -23 -4 -26 -10z"/>
<path d="M1630 5440 c0 -5 9 -10 20 -10 11 0 20 5 20 10 0 6 -9 10 -20 10 -11
0 -20 -4 -20 -10z"/>
<path d="M2000 5460 c0 -23 4 -30 20 -30 16 0 20 7 20 30 0 23 -4 30 -20 30
-16 0 -20 -7 -20 -30z"/>
<path d="M2475 5480 c-4 -6 5 -10 19 -10 14 0 26 5 26 10 0 6 -9 10 -19 10
-11 0 -23 -4 -26 -10z"/>
<path d="M2955 5480 c-4 -6 5 -10 19 -10 14 0 26 5 26 10 0 6 -9 10 -19 10
-11 0 -23 -4 -26 -10z"/>
<path d="M3195 5480 c-4 -6 5 -10 19 -10 14 0 26 5 26 10 0 6 -9 10 -19 10
-11 0 -23 -4 -26 -10z"/>
<path d="M3670 5440 c0 -5 9 -10 20 -10 11 0 20 5 20 10 0 6 -9 10 -20 10 -11
0 -20 -4 -20 -10z"/>
<path d="M3915 5480 c-4 -6 5 -10 19 -10 14 0 26 5 26 10 0 6 -9 10 -19 10
-11 0 -23 -4 -26 -10z"/>
<path d="M560 5000 c0 -23 4 -30 20 -30 16 0 20 7 20 30 0 23 -4 30 -20 30
-16 0 -20 -7 -20 -30z"/>
<path d="M1034 5016 c-9 -24 4 -48 23 -44 12 2 18 12 18 28 0 29 -32 41 -41
16z"/>
<path d="M1390 4980 c0 -5 9 -10 20 -10 11 0 20 5 20 10 0 6 -9 10 -20 10 -11
0 -20 -4 -20 -10z"/>
<path d="M1995 5020 c-4 -6 5 -10 19 -10 14 0 26 5 26 10 0 6 -9 10 -19 10
-11 0 -23 -4 -26 -10z"/>
<path d="M2360 5000 c0 -23 4 -30 20 -30 16 0 20 7 20 30 0 23 -4 30 -20 30
-16 0 -20 -7 -20 -30z"/>
<path d="M2594 4786 c-9 -24 4 -48 23 -44 12 2 18 12 18 28 0 29 -32 41 -41
16z"/>
<path d="M555 4790 c-4 -6 5 -10 19 -10 14 0 26 5 26 10 0 6 -9 10 -19 10 -11
0 -23 -4 -26 -10z"/>
<path d="M1040 4770 c0 -23 4 -30 20 -30 16 0 20 7 20 30 0 23 -4 30 -20 30
-16 0 -20 -7 -20 -30z"/>
<path d="M1514 4786 c-9 -24 4 -48 23 -44 12 2 18 12 18 28 0 29 -32 41 -41
16z"/>
<path d="M1870 4750 c0 -5 9 -10 20 -10 11 0 20 5 20 10 0 6 -9 10 -20 10 -11
0 -20 -4 -20 -10z"/>
<path d="M2240 4770 c0 -23 4 -30 20 -30 16 0 20 7 20 30 0 23 -4 30 -20 30
-16 0 -20 -7 -20 -30z"/>
<path d="M2715 4790 c-4 -6 5 -10 19 -10 14 0 26 5 26 10 0 6 -9 10 -19 10
-11 0 -23 -4 -26 -10z"/>
<path d="M3315 4790 c-4 -6 5 -10 19 -10 14 0 26 5 26 10 0 6 -9 10 -19 10
-11 0 -23 -4 -26 -10z"/>
<path d="M3680 4770 c0 -23 4 -30 20 -30 16 0 20 7 20 30 0 23 -4 30 -20 30
-16 0 -20 -7 -20 -30z"/>
<path d="M1754 4556 c-9 -24 4 -48 23 -44 12 2 18 12 18 28 0 29 -32 41 -41
16z"/>
<path d="M450 4586 c0 -8 -3 -21 -6 -30 -4 -11 0 -16 14 -16 15 0 18 5 14 25
-5 28 -22 44 -22 21z"/>
<path d="M554 4556 c-9 -24 4 -48 23 -44 12 2 18 12 18 28 0 29 -32 41 -41 16z"/>
<path d="M795 4560 c-4 -6 5 -10 19 -10 14 0 26 5 26 10 0 6 -9 10 -19 10 -11
0 -23 -4 -26 -10z"/>
<path d="M914 4556 c-9 -24 4 -48 23 -44 12 2 18 12 18 28 0 29 -32 41 -41 16z"/>
<path d="M1030 4520 c0 -5 9 -10 20 -10 11 0 20 5 20 10 0 6 -9 10 -20 10 -11
0 -20 -4 -20 -10z"/>
<path d="M1635 4560 c-4 -6 5 -10 19 -10 14 0 26 5 26 10 0 6 -9 10 -19 10
-11 0 -23 -4 -26 -10z"/>
<path d="M1875 4560 c-4 -6 5 -10 19 -10 14 0 26 5 26 10 0 6 -9 10 -19 10
-11 0 -23 -4 -26 -10z"/>
<path d="M2350 4520 c0 -5 9 -10 20 -10 11 0 20 5 20 10 0 6 -9 10 -20 10 -11
0 -20 -4 -20 -10z"/>
<path d="M1154 4326 c-9 -24 4 -48 23 -44 12 2 18 12 18 28 0 29 -32 41 -41
16z"/>
<path d="M2474 4326 c-9 -24 4 -48 23 -44 12 2 18 12 18 28 0 29 -32 41 -41
16z"/>
<path d="M555 4330 c-4 -6 5 -10 19 -10 14 0 26 5 26 10 0 6 -9 10 -19 10 -11
0 -23 -4 -26 -10z"/>
<path d="M1040 4310 c0 -23 4 -30 20 -30 16 0 20 7 20 30 0 23 -4 30 -20 30
-16 0 -20 -7 -20 -30z"/>
<path d="M1270 4290 c0 -5 9 -10 20 -10 11 0 20 5 20 10 0 6 -9 10 -20 10 -11
0 -20 -4 -20 -10z"/>
<path d="M1750 4290 c0 -5 9 -10 20 -10 11 0 20 5 20 10 0 6 -9 10 -20 10 -11
0 -20 -4 -20 -10z"/>
<path d="M2355 4330 c-4 -6 5 -10 19 -10 14 0 26 5 26 10 0 6 -9 10 -19 10
-11 0 -23 -4 -26 -10z"/>
<path d="M2595 4330 c-4 -6 5 -10 19 -10 14 0 26 5 26 10 0 6 -9 10 -19 10
-11 0 -23 -4 -26 -10z"/>
<path d="M3070 4290 c0 -5 9 -10 20 -10 11 0 20 5 20 10 0 6 -9 10 -20 10 -11
0 -20 -4 -20 -10z"/>
<path d="M3315 4330 c-4 -6 5 -10 19 -10 14 0 26 5 26 10 0 6 -9 10 -19 10
-11 0 -23 -4 -26 -10z"/>
<path d="M550 4060 c0 -5 9 -10 20 -10 11 0 20 5 20 10 0 6 -9 10 -20 10 -11
0 -20 -4 -20 -10z"/>
<path d="M1994 3906 c-3 -8 -4 -29 -2 -48 2 -25 8 -34 25 -36 26 -4 39 31 29
73 -7 28 -43 35 -52 11z"/>
<path d="M315 3870 c-4 -6 5 -10 19 -10 14 0 26 5 26 10 0 6 -9 10 -19 10 -11
0 -23 -4 -26 -10z"/>
<path d="M555 3870 c-4 -6 5 -10 19 -10 14 0 26 5 26 10 0 6 -9 10 -19 10 -11
0 -23 -4 -26 -10z"/>
<path d="M1040 3850 c0 -23 4 -30 20 -30 16 0 20 7 20 30 0 23 -4 30 -20 30
-16 0 -20 -7 -20 -30z"/>
<path d="M1275 3870 c-4 -6 5 -10 19 -10 14 0 26 5 26 10 0 6 -9 10 -19 10
-11 0 -23 -4 -26 -10z"/>
<path d="M1750 3830 c0 -5 9 -10 20 -10 11 0 20 5 20 10 0 6 -9 10 -20 10 -11
0 -20 -4 -20 -10z"/>
<path d="M2120 3850 c0 -27 3 -31 23 -28 16 2 22 10 22 28 0 18 -6 26 -22 28
-20 3 -23 -1 -23 -28z"/>
<path d="M2480 3850 c0 -23 4 -30 20 -30 16 0 20 7 20 30 0 23 -4 30 -20 30
-16 0 -20 -7 -20 -30z"/>
<path d="M794 3176 c-9 -24 4 -48 23 -44 12 2 18 12 18 28 0 29 -32 41 -41 16z"/>
<path d="M1514 3176 c-9 -24 4 -48 23 -44 12 2 18 12 18 28 0 29 -32 41 -41
16z"/>
<path d="M550 3140 c0 -5 9 -10 20 -10 11 0 20 5 20 10 0 6 -9 10 -20 10 -11
0 -20 -4 -20 -10z"/>
<path d="M915 3180 c-4 -6 5 -10 19 -10 14 0 26 5 26 10 0 6 -9 10 -19 10 -11
0 -23 -4 -26 -10z"/>
<path d="M1395 3180 c-4 -6 5 -10 19 -10 14 0 26 5 26 10 0 6 -9 10 -19 10
-11 0 -23 -4 -26 -10z"/>
<path d="M1635 3180 c-4 -6 5 -10 19 -10 14 0 26 5 26 10 0 6 -9 10 -19 10
-11 0 -23 -4 -26 -10z"/>
<path d="M2110 3140 c0 -5 9 -10 20 -10 11 0 20 5 20 10 0 6 -9 10 -20 10 -11
0 -20 -4 -20 -10z"/>
<path d="M2355 3180 c-4 -6 5 -10 19 -10 14 0 26 5 26 10 0 6 -9 10 -19 10
-11 0 -23 -4 -26 -10z"/>
<path d="M434 2716 c-9 -24 4 -48 23 -44 12 2 18 12 18 28 0 29 -32 41 -41 16z"/>
<path d="M2120 2700 c0 -33 19 -40 40 -15 16 20 5 45 -20 45 -16 0 -20 -7 -20
-30z"/>
<path d="M4290 2746 c0 -8 -3 -21 -6 -30 -4 -11 0 -16 14 -16 15 0 18 5 14 25
-5 28 -22 44 -22 21z"/>
<path d="M5590 2745 c0 -20 5 -25 25 -25 20 0 25 5 25 25 0 20 -5 25 -25 25
-20 0 -25 -5 -25 -25z"/>
<path d="M7038 2708 c-8 -21 2 -38 22 -38 19 0 30 17 23 38 -3 6 -13 12 -23
12 -10 0 -20 -6 -22 -12z"/>
<path d="M315 2720 c-4 -6 5 -10 19 -10 14 0 26 5 26 10 0 6 -9 10 -19 10 -11
0 -23 -4 -26 -10z"/>
<path d="M555 2720 c-4 -6 5 -10 19 -10 14 0 26 5 26 10 0 6 -9 10 -19 10 -11
0 -23 -4 -26 -10z"/>
<path d="M1030 2680 c0 -5 9 -10 20 -10 11 0 20 5 20 10 0 6 -9 10 -20 10 -11
0 -20 -4 -20 -10z"/>
<path d="M1275 2720 c-4 -6 5 -10 19 -10 14 0 26 5 26 10 0 6 -9 10 -19 10
-11 0 -23 -4 -26 -10z"/>
<path d="M1880 2700 c0 -23 4 -30 20 -30 16 0 20 7 20 30 0 23 -4 30 -20 30
-16 0 -20 -7 -20 -30z"/>
<path d="M2355 2720 c-4 -6 5 -10 19 -10 14 0 26 5 26 10 0 6 -9 10 -19 10
-11 0 -23 -4 -26 -10z"/>
<path d="M2840 2700 c0 -23 4 -30 20 -30 16 0 20 7 20 30 0 23 -4 30 -20 30
-16 0 -20 -7 -20 -30z"/>
<path d="M3075 2720 c-4 -6 5 -10 19 -10 14 0 26 5 26 10 0 6 -9 10 -19 10
-11 0 -23 -4 -26 -10z"/>
<path d="M3550 2680 c0 -5 9 -10 20 -10 11 0 20 5 20 10 0 6 -9 10 -20 10 -11
0 -20 -4 -20 -10z"/>
<path d="M3794 2716 c-9 -24 4 -48 23 -44 12 2 18 12 18 28 0 29 -32 41 -41
16z"/>
<path d="M3920 2700 c0 -23 4 -30 20 -30 16 0 20 7 20 30 0 23 -4 30 -20 30
-16 0 -20 -7 -20 -30z"/>
<path d="M4875 2720 c-4 -6 5 -10 19 -10 14 0 26 5 26 10 0 6 -9 10 -19 10
-11 0 -23 -4 -26 -10z"/>
<path d="M5235 2720 c-4 -6 5 -10 19 -10 14 0 26 5 26 10 0 6 -9 10 -19 10
-11 0 -23 -4 -26 -10z"/>
<path d="M434 2486 c-9 -24 4 -48 23 -44 12 2 18 12 18 28 0 29 -32 41 -41 16z"/>
<path d="M2120 2470 c0 -33 19 -40 40 -15 16 20 5 45 -20 45 -16 0 -20 -7 -20
-30z"/>
<path d="M5950 2515 c0 -20 5 -25 25 -25 20 0 25 5 25 25 0 20 -5 25 -25 25
-20 0 -25 -5 -25 -25z"/>
<path d="M315 2490 c-4 -6 5 -10 19 -10 14 0 26 5 26 10 0 6 -9 10 -19 10 -11
0 -23 -4 -26 -10z"/>
<path d="M555 2490 c-4 -6 5 -10 19 -10 14 0 26 5 26 10 0 6 -9 10 -19 10 -11
0 -23 -4 -26 -10z"/>
<path d="M1030 2450 c0 -5 9 -10 20 -10 11 0 20 5 20 10 0 6 -9 10 -20 10 -11
0 -20 -4 -20 -10z"/>
<path d="M1275 2490 c-4 -6 5 -10 19 -10 14 0 26 5 26 10 0 6 -9 10 -19 10
-11 0 -23 -4 -26 -10z"/>
<path d="M1880 2470 c0 -23 4 -30 20 -30 16 0 20 7 20 30 0 23 -4 30 -20 30
-16 0 -20 -7 -20 -30z"/>
<path d="M2355 2490 c-4 -6 5 -10 19 -10 14 0 26 5 26 10 0 6 -9 10 -19 10
-11 0 -23 -4 -26 -10z"/>
<path d="M2960 2470 c0 -23 4 -30 20 -30 16 0 20 7 20 30 0 23 -4 30 -20 30
-16 0 -20 -7 -20 -30z"/>
<path d="M3190 2450 c0 -5 9 -10 20 -10 11 0 20 5 20 10 0 6 -9 10 -20 10 -11
0 -20 -4 -20 -10z"/>
<path d="M4030 2450 c0 -5 9 -10 20 -10 11 0 20 5 20 10 0 6 -9 10 -20 10 -11
0 -20 -4 -20 -10z"/>
<path d="M4274 2486 c-9 -24 4 -48 23 -44 12 2 18 12 18 28 0 29 -32 41 -41
16z"/>
<path d="M4400 2470 c0 -23 4 -30 20 -30 16 0 20 7 20 30 0 23 -4 30 -20 30
-16 0 -20 -7 -20 -30z"/>
<path d="M4870 2450 c0 -5 9 -10 20 -10 11 0 20 5 20 10 0 6 -9 10 -20 10 -11
0 -20 -4 -20 -10z"/>
<path d="M5230 2450 c0 -5 9 -10 20 -10 11 0 20 5 20 10 0 6 -9 10 -20 10 -11
0 -20 -4 -20 -10z"/>
<path d="M5595 2490 c-4 -6 5 -10 19 -10 14 0 26 5 26 10 0 6 -9 10 -19 10
-11 0 -23 -4 -26 -10z"/>
<path d="M674 2026 c-9 -24 4 -48 23 -44 12 2 18 12 18 28 0 29 -32 41 -41 16z"/>
<path d="M2354 2026 c-9 -24 4 -48 23 -44 24 4 24 52 0 56 -9 2 -20 -4 -23
-12z"/>
<path d="M3074 2026 c-9 -24 4 -48 23 -44 12 2 18 12 18 28 0 29 -32 41 -41
16z"/>
<path d="M195 2030 c-4 -6 5 -10 19 -10 14 0 26 5 26 10 0 6 -9 10 -19 10 -11
0 -23 -4 -26 -10z"/>
<path d="M795 2030 c-4 -6 5 -10 19 -10 14 0 26 5 26 10 0 6 -9 10 -19 10 -11
0 -23 -4 -26 -10z"/>
<path d="M1155 2030 c-4 -6 5 -10 19 -10 14 0 26 5 26 10 0 6 -9 10 -19 10
-11 0 -23 -4 -26 -10z"/>
<path d="M1395 2030 c-4 -6 5 -10 19 -10 14 0 26 5 26 10 0 6 -9 10 -19 10
-11 0 -23 -4 -26 -10z"/>
<path d="M1630 1990 c0 -5 9 -10 20 -10 11 0 20 5 20 10 0 6 -9 10 -20 10 -11
0 -20 -4 -20 -10z"/>
<path d="M2000 2010 c0 -23 4 -30 20 -30 16 0 20 7 20 30 0 23 -4 30 -20 30
-16 0 -20 -7 -20 -30z"/>
<path d="M2475 2030 c-4 -6 5 -10 19 -10 14 0 26 5 26 10 0 6 -9 10 -19 10
-11 0 -23 -4 -26 -10z"/>
<path d="M2955 2030 c-4 -6 5 -10 19 -10 14 0 26 5 26 10 0 6 -9 10 -19 10
-11 0 -23 -4 -26 -10z"/>
<path d="M3195 2030 c-4 -6 5 -10 19 -10 14 0 26 5 26 10 0 6 -9 10 -19 10
-11 0 -23 -4 -26 -10z"/>
<path d="M3670 1990 c0 -5 9 -10 20 -10 11 0 20 5 20 10 0 6 -9 10 -20 10 -11
0 -20 -4 -20 -10z"/>
<path d="M3915 2030 c-4 -6 5 -10 19 -10 14 0 26 5 26 10 0 6 -9 10 -19 10
-11 0 -23 -4 -26 -10z"/>
<path d="M560 1550 c0 -23 4 -30 20 -30 16 0 20 7 20 30 0 23 -4 30 -20 30
-16 0 -20 -7 -20 -30z"/>
<path d="M1034 1566 c-9 -24 4 -48 23 -44 12 2 18 12 18 28 0 29 -32 41 -41
16z"/>
<path d="M1390 1530 c0 -5 9 -10 20 -10 11 0 20 5 20 10 0 6 -9 10 -20 10 -11
0 -20 -4 -20 -10z"/>
<path d="M1995 1570 c-4 -6 5 -10 19 -10 14 0 26 5 26 10 0 6 -9 10 -19 10
-11 0 -23 -4 -26 -10z"/>
<path d="M2360 1550 c0 -23 4 -30 20 -30 16 0 20 7 20 30 0 23 -4 30 -20 30
-16 0 -20 -7 -20 -30z"/>
<path d="M2594 1336 c-9 -24 4 -48 23 -44 12 2 18 12 18 28 0 29 -32 41 -41
16z"/>
<path d="M555 1340 c-4 -6 5 -10 19 -10 14 0 26 5 26 10 0 6 -9 10 -19 10 -11
0 -23 -4 -26 -10z"/>
<path d="M1040 1320 c0 -23 4 -30 20 -30 16 0 20 7 20 30 0 23 -4 30 -20 30
-16 0 -20 -7 -20 -30z"/>
<path d="M1514 1336 c-9 -24 4 -48 23 -44 24 4 24 52 0 56 -9 2 -20 -4 -23
-12z"/>
<path d="M1870 1300 c0 -5 9 -10 20 -10 11 0 20 5 20 10 0 6 -9 10 -20 10 -11
0 -20 -4 -20 -10z"/>
<path d="M2240 1320 c0 -23 4 -30 20 -30 16 0 20 7 20 30 0 23 -4 30 -20 30
-16 0 -20 -7 -20 -30z"/>
<path d="M2715 1340 c-4 -6 5 -10 19 -10 14 0 26 5 26 10 0 6 -9 10 -19 10
-11 0 -23 -4 -26 -10z"/>
<path d="M3315 1340 c-4 -6 5 -10 19 -10 14 0 26 5 26 10 0 6 -9 10 -19 10
-11 0 -23 -4 -26 -10z"/>
<path d="M3680 1320 c0 -23 4 -30 20 -30 16 0 20 7 20 30 0 23 -4 30 -20 30
-16 0 -20 -7 -20 -30z"/>
<path d="M1754 1106 c-9 -24 4 -48 23 -44 12 2 18 12 18 28 0 29 -32 41 -41
16z"/>
<path d="M450 1136 c0 -8 -3 -21 -6 -30 -4 -11 0 -16 14 -16 15 0 18 5 14 25
-5 28 -22 44 -22 21z"/>
<path d="M554 1106 c-9 -24 4 -48 23 -44 12 2 18 12 18 28 0 29 -32 41 -41 16z"/>
<path d="M795 1110 c-4 -6 5 -10 19 -10 14 0 26 5 26 10 0 6 -9 10 -19 10 -11
0 -23 -4 -26 -10z"/>
<path d="M914 1106 c-9 -24 4 -48 23 -44 12 2 18 12 18 28 0 29 -32 41 -41 16z"/>
<path d="M1030 1070 c0 -5 9 -10 20 -10 11 0 20 5 20 10 0 6 -9 10 -20 10 -11
0 -20 -4 -20 -10z"/>
<path d="M1635 1110 c-4 -6 5 -10 19 -10 14 0 26 5 26 10 0 6 -9 10 -19 10
-11 0 -23 -4 -26 -10z"/>
<path d="M1875 1110 c-4 -6 5 -10 19 -10 14 0 26 5 26 10 0 6 -9 10 -19 10
-11 0 -23 -4 -26 -10z"/>
<path d="M2350 1070 c0 -5 9 -10 20 -10 11 0 20 5 20 10 0 6 -9 10 -20 10 -11
0 -20 -4 -20 -10z"/>
<path d="M1154 876 c-9 -24 4 -48 23 -44 12 2 18 12 18 28 0 29 -32 41 -41 16z"/>
<path d="M2474 876 c-9 -24 4 -48 23 -44 12 2 18 12 18 28 0 29 -32 41 -41 16z"/>
<path d="M555 880 c-4 -6 5 -10 19 -10 14 0 26 5 26 10 0 6 -9 10 -19 10 -11
0 -23 -4 -26 -10z"/>
<path d="M1040 860 c0 -23 4 -30 20 -30 16 0 20 7 20 30 0 23 -4 30 -20 30
-16 0 -20 -7 -20 -30z"/>
<path d="M1270 840 c0 -5 9 -10 20 -10 11 0 20 5 20 10 0 6 -9 10 -20 10 -11
0 -20 -4 -20 -10z"/>
<path d="M1750 840 c0 -5 9 -10 20 -10 11 0 20 5 20 10 0 6 -9 10 -20 10 -11
0 -20 -4 -20 -10z"/>
<path d="M2355 880 c-4 -6 5 -10 19 -10 14 0 26 5 26 10 0 6 -9 10 -19 10 -11
0 -23 -4 -26 -10z"/>
<path d="M2595 880 c-4 -6 5 -10 19 -10 14 0 26 5 26 10 0 6 -9 10 -19 10 -11
0 -23 -4 -26 -10z"/>
<path d="M3070 840 c0 -5 9 -10 20 -10 11 0 20 5 20 10 0 6 -9 10 -20 10 -11
0 -20 -4 -20 -10z"/>
<path d="M3315 880 c-4 -6 5 -10 19 -10 14 0 26 5 26 10 0 6 -9 10 -19 10 -11
0 -23 -4 -26 -10z"/>
<path d="M550 610 c0 -5 9 -10 20 -10 11 0 20 5 20 10 0 6 -9 10 -20 10 -11 0
-20 -4 -20 -10z"/>
<path d="M1994 456 c-3 -8 -4 -29 -2 -48 2 -25 8 -34 25 -36 26 -4 39 31 29
73 -7 28 -43 35 -52 11z"/>
<path d="M315 420 c-4 -6 5 -10 19 -10 14 0 26 5 26 10 0 6 -9 10 -19 10 -11
0 -23 -4 -26 -10z"/>
<path d="M555 420 c-4 -6 5 -10 19 -10 14 0 26 5 26 10 0 6 -9 10 -19 10 -11
0 -23 -4 -26 -10z"/>
<path d="M1040 400 c0 -23 4 -30 20 -30 16 0 20 7 20 30 0 23 -4 30 -20 30
-16 0 -20 -7 -20 -30z"/>
<path d="M1275 420 c-4 -6 5 -10 19 -10 14 0 26 5 26 10 0 6 -9 10 -19 10 -11
0 -23 -4 -26 -10z"/>
<path d="M1750 380 c0 -5 9 -10 20 -10 11 0 20 5 20 10 0 6 -9 10 -20 10 -11
0 -20 -4 -20 -10z"/>
<path d="M2120 400 c0 -27 3 -31 23 -28 16 2 22 10 22 28 0 18 -6 26 -22 28
-20 3 -23 -1 -23 -28z"/>
<path d="M2480 400 c0 -23 4 -30 20 -30 16 0 20 7 20 30 0 23 -4 30 -20 30
-16 0 -20 -7 -20 -30z"/>
</g>
</svg>
